<?xml version="1.0" encoding="utf-8"?>
<!-- Generator: Adobe Illustrator 17.0.0, SVG Export Plug-In . SVG Version: 6.00 Build 0)  -->
<svg version="1.2" baseProfile="tiny" id="Layer_1" xmlns="http://www.w3.org/2000/svg" xmlns:xlink="http://www.w3.org/1999/xlink"
	 x="0px" y="0px" width="70px" height="70px" viewBox="0 0 70 70" xml:space="preserve">
<g>
	<path fill="#FFFFFF" d="M24.241,12.073c0.567-0.394,1.14-0.746,1.711-1.059C25.381,11.327,24.808,11.679,24.241,12.073z"/>
	<path fill="#FFFFFF" d="M31.733,67.309c0.011,0,0.022,0,0.033,0c-0.132,0.002-0.238-0.035-0.353-0.059
		C31.518,67.272,31.614,67.309,31.733,67.309z"/>
	<path fill="#FFFFFF" d="M38.279,64.486c-0.076,0-0.159,0-0.237,0c0.138,0,0.278,0,0.411,0
		C38.393,64.486,38.34,64.486,38.279,64.486z"/>
	<path fill="#FFFFFF" d="M30.377,65.897L30.377,65.897c0-0.206,0.034-0.396,0.097-0.567C30.411,65.501,30.377,65.691,30.377,65.897z
		"/>
	<path fill="#FFFFFF" d="M36.74,67.302c0.291,0,0.578,0.001,0.861,0.001c0.008,0,0.015,0,0.023,0
		C37.334,67.303,37.039,67.303,36.74,67.302z"/>
	<path fill="#FFFFFF" d="M32.745,64.492c-0.445,0.001-0.787,0.001-0.978,0.001c-0.006,0-0.011,0-0.016,0
		c-0.121,0-0.221,0.037-0.329,0.06c0.113-0.024,0.218-0.061,0.345-0.06C31.958,64.493,32.3,64.492,32.745,64.492z"/>
	<path fill="#FFFFFF" d="M33.224,64.491c0.337,0,0.711-0.001,1.108-0.002C33.935,64.49,33.561,64.49,33.224,64.491z"/>
	<path fill="#FFFFFF" d="M41.25,64.537c-0.11-0.026-0.234-0.042-0.373-0.044c-0.015,0-0.045,0-0.061,0c0.018,0,0.046,0,0.061,0.001
		C41.016,64.495,41.14,64.51,41.25,64.537z"/>
	<path fill="#FFFFFF" d="M57.346,1H12.652C7.993,1,4.204,4.79,4.204,9.449v44.693c0,4.66,3.79,8.451,8.448,8.451h14.369
		c0,0.001,0.001,0.002,0.001,0.002c-0.044-0.177-0.073-0.359-0.078-0.549c0-0.02-0.006-0.039-0.006-0.059
		c0-0.246,0.046-0.479,0.112-0.703c-1.555,0.178-3.188,0.534-3.353,0.762h-5.518c1.264-0.318,2.532-0.632,3.881-0.86
		c0.653,0.081,2.616-0.217,1.834-0.384c1.034-0.408,2.327-0.554,3.75-0.561c0.122-0.128,0.255-0.245,0.401-0.345
		c-0.679-0.455-1.128-1.229-1.128-2.106c0-0.05,0.011-0.097,0.014-0.146c-1.982,0.176-3.807,0.516-5.79,0.688
		c-0.985-0.093-3.294,0.325-2.752,0.57c-1.345,0.511-2.975,0.722-4.417,1.144c-0.272-0.466-2.62,0.338-1.825,0.378
		c-0.963,0.299-1.929,0.603-3,0.794c-1.247-0.62-2.308-1.555-3.072-2.708c4.029-0.581,8.067-1.152,12.314-1.515
		c2.946-0.052,5.764-0.224,8.443-0.563c0.156,0,0.314,0,0.472,0c0.051-0.083,0.115-0.158,0.175-0.235
		c-0.449-0.283-0.87-0.638-1.259-1.045c-1.27,0.037-2.537,0.079-3.795,0.132c-0.308,0-0.613,0-0.92,0
		c-2.855-0.043-5.269,0.384-8.079,0.391c-0.495,0.137,0.09,0.214,0.41,0.197c-2.806,0.373-5.682,0.676-8.61,0.925
		c-0.293-0.826-0.461-1.711-0.461-2.637v-1.616c0.336-0.032,0.658-0.068,0.954-0.111c0.182,0,0.366,0,0.548,0
		c1.049,0.447,2.875,0.068,4.225,0.186c2.752,0.328,6.796,0.328,9.548,0c0.736-0.112,1.949,0.261,2.386-0.186
		c0.065,0,0.131,0,0.191,0c0.609,0.049,1.254,0.089,1.914,0.123c-0.183-0.423-0.339-0.862-0.462-1.317
		c-0.057,0.019-0.121,0.031-0.174,0.053c-0.243,0-0.49,0-0.733,0c-1.349,0.128-3.174-0.245-4.224,0.193c-0.184,0-0.366,0-0.547,0
		c-1.409,0.121-3.3-0.246-4.417,0.186c-0.234,0-0.481,0-0.73,0c-2.809-0.022-5.65-0.029-8.478-0.071v-2.611
		c0.441,0.006,0.881,0.012,1.319,0.021c0.372,0,0.737,0,1.102,0c2.08,0.323,5.451,0.323,7.532,0c0.612,0,1.219,0,1.837,0
		c1.037-0.13,2.57,0.248,3.3-0.186c0.254,0,0.489,0,0.738,0c1.024-0.034,2.04-0.081,3.055-0.132
		c-0.067-0.497-0.152-0.964-0.26-1.397c-0.013,0.001-0.025,0.003-0.037,0.004c-5.386,0.254-10.779,0.503-16.53,0.381
		c-0.247,0-0.481,0-0.737,0c-0.425-0.063-0.87-0.106-1.319-0.145v-1.088c3.944,0.212,8.634,0.177,12.338-0.104
		c0.606,0,1.227,0,1.833,0c1.173-0.123,2.817,0.255,3.678-0.185c0.138,0,0.283,0,0.424,0c-0.122-0.328-0.258-0.642-0.405-0.943
		c-0.829,0.097-1.684,0.166-2.595,0.181c-1.161,0.123-2.818-0.248-3.665,0.192c-0.306,0-0.613,0-0.926,0c-2.752,0-5.51,0-8.262,0
		c-0.307,0-0.612,0-0.92,0c-0.498-0.044-1-0.085-1.501-0.127v-1.637c0.386,0.009,0.769,0.022,1.135,0.053c0.119,0,0.255,0,0.366,0
		c3.671,0.316,8.633,0.316,12.305,0c0.182,0,0.366,0,0.554,0c0.817-0.125,2.048,0.202,2.651-0.143
		c-0.266-0.394-0.554-0.785-0.861-1.178c-2.13,0.052-4.273,0.085-6.198,0.368c-0.191,0-0.372,0-0.561,0c-2.687,0-5.38,0-8.073,0
		c-0.366,0-0.73,0-1.096,0c-0.072-0.012-0.15-0.018-0.223-0.028v-1.514c0.321,0.003,0.641,0.008,0.954,0.02c0.249,0,0.483,0,0.738,0
		c1.167,0.441,3.122,0.062,4.589,0.186c1.351,0,2.694,0,4.044,0c1.037-0.119,2.562,0.255,3.3-0.186
		c0.26,0.021,0.513,0.034,0.547-0.186c0.278-0.029,0.545-0.07,0.819-0.103c-0.28-0.341-0.562-0.685-0.851-1.049
		c-0.106-0.134-0.193-0.264-0.295-0.397c-1.009,0.181-2.047,0.331-3.162,0.401c-1.155,0-2.321,0-3.482,0
		c0.02,0.419,0.777,0.081,1.088,0.193c-0.73,0.44-2.255,0.068-3.286,0.192c-0.378-0.447-1.533-0.081-2.218-0.192
		c-0.668-0.323-1.766-0.21-2.785-0.175v-1.66c1.779-0.007,3.631-0.154,5.004-0.264c0.248,0.021,0.509,0.034,0.542-0.187
		c0.279-0.033,0.564-0.058,0.848-0.086c0.446-0.033,0.892-0.083,1.338-0.132c1.232-0.116,2.446-0.25,3.506-0.547
		c0.318,0.004,0.596-0.033,0.872-0.073c-0.32-0.543-0.596-1.082-0.846-1.621c-2.019,0.772-4.121,1.442-6.819,1.502
		c-1.486,0-2.966,0-4.443,0v-2.092c0.779,0.082,1.918-0.041,2.975,0.008c0.686,0.031,4.508,0.325,2.934-0.192
		c0-0.069,0-0.127,0-0.192c0.58-0.249,0.75,0.192,1.102-0.379c0.184,0.409,1.064-0.021,1.279-0.185
		c0.752-0.285,1.694-0.368,2.01-1.097c-0.005-0.018-0.008-0.037-0.013-0.055c-0.147-0.033-0.334-0.014-0.334-0.191
		c-0.528-0.592-2.016-1.202-2.752-0.945c-0.123,0-0.255,0-0.372,0c-0.736-0.563-2.268-0.315-3.123-0.762
		c0.568-0.332-1.551-0.192-2.752-0.192c-0.277,0-0.612-0.004-0.954-0.008v-1.279c1.707,0.009,3.369,0.03,4.813-0.04
		c1.768,0.182,3.45,0.454,5.041,0.82c-0.041-0.459-0.062-0.93-0.068-1.409c-1.196-0.093-2.454-0.122-3.505-0.361
		c2.641-0.049-0.34-0.307-1.468-0.192c-0.129,0-0.253,0-0.37,0c-0.979-0.441-2.752-0.067-4.044-0.196c-0.131,0-0.266,0-0.399,0
		v-1.142c0.401-0.02,0.795-0.034,1.135,0.008c0.184,0,0.366,0,0.556,0c2.503,0.185,5.718,0.663,8.071,0.377
		c0.025,0.003,0.049,0.006,0.074,0.008c0.045-0.597,0.103-1.18,0.179-1.745c-2.354-0.145-5.684-0.195-6.858-0.354
		c-0.182,0-0.372,0-0.554,0c-0.62-0.322-1.645-0.216-2.603-0.178v-0.795c3.044,0.245,6.127,0.482,8.851,0.401
		c0.432,0.038,0.852,0.09,1.282,0.131c0.103-0.634,0.225-1.248,0.365-1.842c-0.179,0-0.366,0-0.544,0
		c-0.613-0.44-2.016-0.063-2.942-0.196c-0.182,0-0.364,0-0.553,0c-0.665-0.431-2.131-0.066-3.116-0.185c-0.184,0-0.366,0-0.555,0
		c-0.582-0.416-1.865-0.112-2.785-0.177v-0.936c1.048-0.006,2.186-0.104,3.157-0.031c0.49,0,0.978,0,1.474,0
		c1.767,0.379,4.1,0.162,6.225,0.168c0.237-0.799,0.507-1.558,0.807-2.28c-1.233-0.097-3.238-0.18-3.55-0.17
		c-0.117,0-0.241,0-0.37,0c-1.037-0.448-2.87-0.068-4.214-0.186c-0.313,0-0.619,0-0.926,0c-0.841-0.046-1.715-0.084-2.603-0.116
		v-1.192c1.237-0.009,2.552-0.098,3.705-0.024c0.249,0,0.489,0,0.738,0c2.439,0.117,5.27,0.51,7.773,0.463
		c0.415-0.844,0.87-1.635,1.363-2.367c-0.48,0-0.949,0-1.429,0c-3.636-0.29-8.308-0.317-12.151-0.084v-2.219
		c2.051-0.014,4.093-0.017,6.099,0.015c0.548,0,1.102,0,1.644,0c0.859,0.444,2.515,0.07,3.683,0.199c0.182,0,0.364,0,0.54,0
		c0.854,0.092,1.929,0.233,2.976,0.297c1.184-1.383,2.5-2.526,3.874-3.462c-0.552,0.055-1.115,0.099-1.705,0.114
		c-1.043,0.121-2.562-0.252-3.306,0.186c-0.299,0-0.606,0-0.914,0c-3.611,0.126-7.72-0.245-11.019,0.191c-0.554,0-1.108,0-1.65,0
		c-0.073,0.003-0.149,0.003-0.223,0.005V9.466c0-0.801,0.121-1.574,0.344-2.303c1.463-0.047,2.668-0.142,2.813-0.389
		C7.867,6.878,7.469,6.771,7.206,6.751c8.529-0.924,16.94-1.954,24.78-3.589c1.883,0.119,4.69-0.813,6.209-1.581h13.342
		c-0.865,0.296-1.808,0.508-2.662,0.82c-0.9-0.223-3.209,0.734-3.494,1.141c-0.158,0.284-0.594,0.278-0.914,0.384
		c-0.436-0.26-1.72,0.238-2.027,0.763c-0.138,0.098-0.294,0.198-0.542,0.184c-0.437-0.256-1.715,0.242-2.02,0.758
		c-0.143,0.099-0.301,0.202-0.562,0.192c-0.423-0.258-1.714,0.248-2.014,0.765c-0.152,0.094-0.295,0.192-0.548,0.186
		c-0.165-0.097-0.457-0.082-0.771,0.001h1.325c0.006,0,0.012,0,0.018,0c0.105,0.001,1.477,0.028,3.462,0.437
		c0.697-0.313,1.377-0.644,2.023-1.009c-0.026,0.484,2.582-0.922,3.488-1.33c0.126-0.256,0.392-0.359,0.738-0.382
		c0.162,0.039,0.175-0.075,0.182-0.192c0.19,0,0.378,0,0.554,0c2.628-0.819,5.295-1.613,7.891-2.473
		c0.006-0.177,0.229-0.144,0.364-0.185c0.082-0.021,0.166-0.04,0.248-0.061h1.07c1.772,0,3.401,0.591,4.718,1.577
		c-0.863,0.24-1.716,0.491-2.546,0.768c-0.569-0.325-1.847,0.238-2.192,0.763c-2.784,0.931-5.204,2.213-7.903,3.23
		c-1.063,0.229-1.916,0.676-2.569,1.327c-0.001,0.04-0.016,0.066-0.034,0.088c0.128,0.066,0.256,0.127,0.384,0.197
		c1.219,0.663,2.507,1.531,3.753,2.642c-0.02-0.023-0.047-0.043-0.066-0.066c0.071-0.257,0.319-0.297,0.372-0.57
		c2.262-1.78,4.727-3.355,7.517-4.57c1.658-0.688,3.316-1.375,5.058-1.974c0.364,0.527,0.66,1.102,0.888,1.711
		c-3.084,1.288-5.94,2.814-8.508,4.642c-0.301-0.06-0.32,0.177-0.554,0.192c0.619,1.194,1.7,1.918,2.94,2.47
		c1.992,1.228,4.222,2.21,6.63,3.007v1.058c-1.201-0.248-2.38-0.518-3.512-0.836c-0.117,0-0.243,0-0.36,0
		c-0.593-0.078-0.997-0.357-1.662-0.379c0-0.186-0.208-0.151-0.358-0.186c-0.522-0.226-1.063-0.43-1.658-0.579
		c-0.514-0.343-1.141-0.576-1.832-0.758c-0.058-0.436-0.809-0.185-0.926-0.57c-0.559-0.703-2.351-1.273-3.473-2.133
		c1.272,1.218,2.478,2.716,3.498,4.546c3.265,0.976,6.712,1.766,10.282,2.428v2.91c-1.319-0.269-2.613-0.564-3.872-0.896
		c-0.033-0.308-1.65-0.58-2.582-0.573c-0.672,0.015-1.258-0.087-1.642-0.384c0.208,0.034,0.326-0.032,0.364-0.186
		c-0.406-0.092-0.792-0.205-1.188-0.308c0.273,0.741,0.522,1.515,0.732,2.344c0.396,0.068,0.799,0.045,1.004-0.129
		c2.37,0.389,4.767,0.75,7.184,1.092v2.487c-2.684-0.159-5.235-0.451-7.68-0.856c0.033,0.223,0.067,0.445,0.096,0.673
		c2.48,0.366,5.012,0.679,7.584,0.954v2.502c-0.373-0.004-0.75-0.004-1.121-0.01c-0.364,0-0.736,0-1.094,0
		c-1.116-0.44-3.006-0.063-4.416-0.192c-0.255,0-0.504-0.006-0.751-0.014c-0.008,0.335-0.013,0.672-0.038,0.996
		c1.812,0.477,4.274,0.284,6.482,0.35c0.313,0,0.624,0,0.937,0v2.068c-2.169-0.012-4.296,0.017-6.264,0.21
		c-0.446,0.071-1.043-0.009-1.569-0.02c-0.091,0.375-0.205,0.745-0.325,1.114c1.449-0.087,2.932-0.138,4.47-0.136
		c1.038-0.129,2.568,0.249,3.3-0.195c0.064,0,0.124,0,0.182,0c0.068,0.003,0.139,0.005,0.207,0.008v3.62
		c-3.226,0.067-6.761-0.196-9.719,0.136c-0.409,0.689-0.895,1.39-1.423,2.102c2.297-0.055,4.605-0.101,6.723-0.344
		c0.299,0,0.605,0,0.906,0c1.148-0.032,2.326-0.032,3.512-0.022v3.252c-0.194,0-0.384,0-0.579,0
		c-1.585,0.137-3.658-0.248-4.956,0.193c-0.299,0-0.606,0-0.92,0c-2.664-0.074-4.83,0.365-7.418,0.374
		c-0.053,0.069-0.109,0.138-0.16,0.207c0.104,0.01,0.214,0.013,0.304,0.008c-0.116,0.011-0.226,0.028-0.342,0.04
		c-0.749,0.999-1.363,2.005-1.806,3.208c5.234-0.632,10.5-1.252,15.875-1.729v5.842c-2.19,0.018-4.35,0.091-6.264,0.228
		c-2.875,0-5.753,0-8.622,0c-0.601,0.024-1.222,0.028-1.848,0.025c-0.13,0.663-0.326,1.3-0.579,1.905
		c1.658-0.014,3.279-0.065,4.808-0.212c1.22,0,2.453,0,3.671,0c2.909-0.039,5.868-0.027,8.834-0.008v1.921
		c0,1.615-0.487,3.115-1.32,4.366c-0.446,0.024-0.888,0.045-1.266-0.002c-0.867,0.071-1.539-0.059-2.212-0.192
		c-0.006-0.115-0.019-0.22-0.182-0.196c-4.264-1.328-9.204-2.134-14.469-2.59c-0.193,0.172-0.394,0.323-0.6,0.468
		c0.246,0.264,0.435,0.573,0.556,0.913c4.314,0.445,8.431,1.097,12.68,1.597c1.582,0.311,3.253,0.529,4.971,0.698
		c-0.382,0.456-0.818,0.863-1.293,1.222c-0.28-0.01-0.545-0.015-0.554-0.019c-1.553-0.378-5.459-1.476-7.159-1.135
		c-0.398-0.354-1.514,0.03-1.846-0.388c0.15-0.04,0.364,0,0.372-0.186c-2.272-0.289-4.623-0.586-7.024-0.848
		c-0.026,0.836-0.453,1.572-1.1,2.015c0.149,0.1,0.285,0.217,0.41,0.346c1.551,0.087,3.066,0.126,4.406,0.01
		c3.732,0.317,7.377,0.708,11.052,1.073c-1.008,0.467-2.127,0.736-3.311,0.736h-5.044c-0.226-0.029-0.438-0.073-0.667-0.098
		c-1.447,0.094-2.23-0.483-3.678-0.384c-0.563-0.267-1.373-0.283-2.165-0.319c0.073,0.236,0.124,0.483,0.124,0.743
		c0,0.02-0.005,0.039-0.006,0.059c-0.004,0.189-0.034,0.372-0.078,0.549c0-0.001,0.001-0.002,0.001-0.002h11.513
		c4.66,0,8.451-3.791,8.451-8.451V9.449C65.796,4.79,62.006,1,57.346,1z M30.702,1.826c-4.213,1.096-8.895,1.71-13.785,2.099
		c-3.045,0.006-5.882,0.238-8.622,0.565c-0.188,0-0.372,0-0.554,0C7.379,4.534,6.959,4.517,6.533,4.496
		c0.383-0.471,0.823-0.893,1.304-1.265c0.691-0.034,1.38-0.07,2.103-0.07C9.887,2.902,9.482,3.001,9.21,2.97
		c2.092-0.292,4.234-0.535,6.395-0.76c1.546-0.134,3.075-0.286,4.584-0.457c0.599-0.057,1.199-0.115,1.798-0.172h8.873
		C30.559,1.69,30.423,1.798,30.702,1.826z M65.234,15.697c-0.195-0.055-0.379-0.12-0.579-0.171
		c-2.184-0.775-4.088-1.844-5.685-3.233c-0.079-0.164-0.158-0.344-0.366-0.378c1.653-1.918,3.919-3.206,6.413-4.258
		c0.121,0.512,0.191,1.043,0.206,1.588c-0.2,0.138-0.393,0.27-0.567,0.379c-1.239,0.744-2.459,1.507-3.658,2.291
		c0.652,0.71,1.512,1.209,2.198,1.907c0.575,0.427,1.278,0.832,2.038,1.192V15.697z M65.234,12.761
		c-0.275-0.128-0.573-0.232-0.937-0.273c-0.542,0.043-0.561-0.434-1.101-0.381c-0.027-0.605,0.47-0.657,0.918-0.762
		c0.386-0.16,0.748-0.345,1.121-0.519V12.761z"/>
	<path fill="#FFFFFF" d="M43.366,56.257c0.194,0.031,0.378,0.094,0.546,0.183C43.744,56.351,43.559,56.288,43.366,56.257l-13.909,0
		c-0.195,0.031-0.381,0.094-0.55,0.183c0.169-0.089,0.355-0.152,0.55-0.183H43.366z"/>
	<path fill="#FFFFFF" d="M40.88,67.308c0.052,0,0.093-0.012,0.141-0.017c-0.048,0.005-0.091,0.017-0.143,0.017
		C40.879,67.308,40.879,67.308,40.88,67.308z"/>
	<path fill="#FFFFFF" d="M33.532,69c0.007,0,0.013,0,0.02,0c-0.121,0.002-0.227-0.02-0.323-0.054C33.32,68.979,33.419,69,33.532,69z
		"/>
	<polygon fill="#FFFFFF" points="32.762,68.429 32.763,68.431 32.763,68.429 	"/>
	<path fill="#FFFFFF" d="M36.066,55.128L36.066,55.128h0.278c0,0,4.657,0,6.986,0c0.442-0.163,0.873-0.431,1.275-0.781
		c1.004-0.877,1.826-2.272,2.194-3.845c0.073-0.315,0.129-0.636,0.164-0.962c0.047-0.652,0.124-1.256,0.228-1.82
		c0.104-0.564,0.236-1.088,0.391-1.58c0.078-0.246,0.161-0.484,0.25-0.715c0.356-0.924,0.799-1.735,1.302-2.499
		c0.881-1.336,1.945-2.526,3.046-3.911c0.792-1.001,1.441-1.941,1.968-2.846c1.055-1.809,1.624-3.475,1.876-5.203
		c0.126-0.864,0.172-1.743,0.161-2.662c-0.058-1.228-0.183-2.381-0.365-3.461c-0.25-1.483-0.617-2.822-1.063-4.048
		c-0.204-0.562-0.42-1.107-0.659-1.619c-0.38-0.814-0.801-1.567-1.254-2.262c-0.227-0.348-0.461-0.681-0.703-1.001
		c-0.725-0.959-1.514-1.794-2.336-2.522c-0.823-0.728-1.68-1.348-2.542-1.877c-0.359-0.22-0.72-0.425-1.079-0.614
		c-1.078-0.569-2.145-1.005-3.146-1.339c-0.534-0.178-1.049-0.327-1.536-0.452c-0.488-0.125-0.948-0.226-1.372-0.307
		c-0.212-0.041-0.415-0.076-0.608-0.108c-0.365-0.059-0.69-0.102-0.976-0.135c-0.168-0.019-0.324-0.035-0.461-0.047
		c-0.492-0.043-0.773-0.046-0.773-0.046h-2.329c0,0-4.455,0.047-9.027,2.55c-0.571,0.313-1.145,0.664-1.711,1.059
		c-0.85,0.592-1.685,1.28-2.476,2.081s-1.539,1.716-2.215,2.758c-0.901,1.391-1.673,3.01-2.25,4.896
		c-0.288,0.943-0.527,1.953-0.709,3.034c-0.182,1.081-0.306,2.233-0.364,3.461c-0.012,0.92,0.035,1.799,0.161,2.662
		c0.111,0.764,0.298,1.517,0.548,2.274c0.091,0.276,0.199,0.555,0.311,0.833c0.184,0.458,0.401,0.922,0.647,1.393
		c0.587,1.121,1.338,2.284,2.339,3.549c1.1,1.385,2.165,2.575,3.046,3.911c0.252,0.382,0.488,0.776,0.706,1.189
		c0.218,0.414,0.418,0.848,0.596,1.31c0.089,0.231,0.172,0.469,0.25,0.715c0.155,0.492,0.286,1.016,0.391,1.58
		c0.104,0.564,0.181,1.168,0.228,1.82c0.035,0.326,0.09,0.648,0.164,0.962c0.252,1.079,0.726,2.062,1.318,2.863
		c0.271,0.367,0.561,0.706,0.876,0.981c0.402,0.351,0.832,0.618,1.275,0.781C31.409,55.128,36.066,55.128,36.066,55.128z"/>
	<path fill="#FFFFFF" d="M29.453,59.198h13.909c0.778,0,1.408-0.63,1.408-1.408c0-0.389-0.158-0.741-0.412-1.011
		c-0.127-0.135-0.278-0.25-0.446-0.339c-0.168-0.089-0.352-0.152-0.546-0.183H29.457c-0.195,0.031-0.381,0.094-0.55,0.183
		c-0.169,0.089-0.321,0.204-0.449,0.339c-0.255,0.27-0.413,0.622-0.413,1.011C28.045,58.568,28.675,59.198,29.453,59.198z"/>
	<path fill="#FFFFFF" d="M43.381,60.581H29.472c-0.778,0-1.408,0.63-1.408,1.408c0,0.778,0.63,1.408,1.408,1.408h1.967h9.79h2.151
		c0.778,0,1.408-0.63,1.408-1.408C44.789,61.211,44.159,60.581,43.381,60.581z"/>
	<path fill="#FFFFFF" d="M41.25,64.537c-0.11-0.026-0.234-0.042-0.373-0.044c-0.016,0-0.043,0-0.061-0.001
		c-0.076-0.001-0.168-0.002-0.28-0.002c-0.055,0-0.119-0.001-0.182-0.001c-0.102,0-0.212-0.001-0.333-0.001
		c-0.076,0-0.15,0-0.232-0.001c-0.386-0.001-0.839-0.001-1.336-0.001c-0.133,0-0.272,0-0.411,0c-0.154,0-0.31,0-0.469,0
		c-0.402,0-0.815,0.001-1.231,0.001c-0.253,0-0.505,0-0.755,0.001c-0.432,0.001-0.855,0.001-1.255,0.002
		c-0.397,0.001-0.771,0.001-1.108,0.002c-0.17,0-0.33,0-0.479,0.001c-0.444,0.001-0.787,0.001-0.978,0.001
		c-0.127-0.001-0.233,0.036-0.345,0.06c-0.077,0.017-0.165,0.015-0.235,0.043c-0.104,0.041-0.182,0.113-0.267,0.177
		c-0.054,0.04-0.122,0.065-0.168,0.113c-0.081,0.084-0.131,0.194-0.187,0.299c-0.027,0.051-0.069,0.09-0.09,0.145
		c-0.064,0.171-0.097,0.361-0.097,0.567c0,0.002,0.001,0.003,0.001,0.005c0.001,0.203,0.032,0.393,0.093,0.563
		c0.02,0.056,0.062,0.096,0.088,0.148c0.054,0.106,0.103,0.216,0.182,0.3c0.046,0.049,0.114,0.075,0.168,0.116
		c0.084,0.064,0.161,0.135,0.264,0.177c0.071,0.028,0.162,0.028,0.241,0.045c0.115,0.024,0.221,0.061,0.353,0.059c0,0,0,0,0,0
		c0.052-0.001,0.13-0.002,0.226-0.002c0.012,0,0.025,0,0.037,0c0.087-0.001,0.19-0.001,0.306-0.002c0.016,0,0.029,0,0.046,0
		c0.563-0.002,1.415-0.003,2.368-0.003c0.031,0,0.062,0,0.093,0c0.391,0,0.797,0,1.206,0.001c0.093,0,0.184,0,0.277,0
		c0.139,0,0.276,0,0.415,0c0.299,0,0.594,0.001,0.883,0.001c-0.008,0-0.015,0-0.023,0c-1.477,0-3.566,0.004-4.048,0.004
		c-0.511-0.005-0.835,0.348-0.835,0.844c0,0.1,0.021,0.19,0.046,0.277c0,0.001,0,0.002,0,0.002c0.018,0.063,0.046,0.117,0.076,0.172
		c0.017,0.031,0.033,0.061,0.054,0.089c0.031,0.041,0.063,0.078,0.102,0.112c0.04,0.035,0.086,0.064,0.135,0.09
		c0.033,0.018,0.062,0.039,0.099,0.052c0.097,0.034,0.203,0.056,0.323,0.054c0.525-0.009,4.877-0.001,5.476,0
		c0.074,0,0.121-0.029,0.181-0.044c0.151-0.037,0.269-0.104,0.35-0.203c0,0,0,0,0,0c0.151-0.184,0.209-0.426,0.209-0.602
		c0-0.308-0.071-0.835-0.741-0.844c-0.094-0.001-0.259-0.002-0.468-0.003c1.116,0.002,2.012,0.003,2.317,0.004c0,0,0,0,0.001,0
		c0.053,0,0.095-0.012,0.143-0.017c0.067-0.007,0.138-0.008,0.197-0.023c0.037-0.009,0.066-0.027,0.1-0.04
		c0.06-0.021,0.122-0.04,0.173-0.069c0.025-0.014,0.043-0.034,0.066-0.05c0.052-0.036,0.105-0.07,0.148-0.113
		c0.009-0.009,0.016-0.021,0.025-0.031c0.11-0.118,0.194-0.254,0.252-0.397c0.008-0.019,0.012-0.039,0.019-0.059
		c0.077-0.215,0.108-0.437,0.108-0.613c0-0.32-0.046-0.782-0.352-1.088C41.634,64.687,41.47,64.59,41.25,64.537z"/>
</g>
</svg>
