<?xml version="1.0" encoding="utf-8"?>
<!-- Generator: Adobe Illustrator 17.0.0, SVG Export Plug-In . SVG Version: 6.00 Build 0)  -->
<svg version="1.2" baseProfile="tiny" id="_x3C_Layer_x3E_"
	 xmlns="http://www.w3.org/2000/svg" xmlns:xlink="http://www.w3.org/1999/xlink" x="0px" y="0px" width="384.571px"
	 height="95.592px" viewBox="0 0 384.571 95.592" overflow="visible" xml:space="preserve">
<g>
	<g>
		<polygon points="348.132,95.592 384.571,47.689 348.132,0 36.439,0 0,47.689 36.439,95.592 		"/>
		<polygon fill="none" stroke="#FFFFFF" stroke-width="2.9399" points="345.847,90.434 377.484,47.696 345.847,5.148 38.727,5.148 
			7.087,47.696 38.727,90.434 		"/>
		<g>
			<path fill="#FFFFFF" d="M129.642,29.564c0-3.688,0.618-9.291,3.888-10.592v-0.443h-19.238v0.443
				c3.27,1.301,3.889,6.904,3.889,10.592v35.551c0,3.688-0.619,9.291-3.889,10.592v0.443h19.238v-0.443
				c-3.27-1.301-3.888-6.904-3.888-10.592V29.564z"/>
			<g>
				<path fill="#FFFFFF" d="M62.923,18.514l15.426,38.032l15.627-38.032l15.478,0.016v0.443c-3.269,1.301-3.887,6.904-3.887,10.592
					v35.551c0,3.688,0.617,9.291,3.887,10.592v0.443H90.217v-0.443c3.27-1.301,3.889-6.904,3.889-10.592l-0.03-36.257h-0.201
					L74.719,76.151h-2.117L53.647,28.858h-0.201l-0.004,36.257c0,3.688,0.618,9.291,3.889,10.592v0.443H45.953v-0.443
					c3.27-1.301,3.888-6.904,3.888-10.592V29.564c0-3.688-0.618-9.291-3.888-10.592v-0.443L62.923,18.514z"/>
			</g>
			<path fill="#FFFFFF" d="M241.268,55.954h-0.178l-8.783-26.346c-1.241-3.691-2.533-9.307,0.165-10.604l-0.026-0.446l-19.392-0.03
				l0.043,0.445c2.799,1.022,4.926,4.688,6.312,8.001l-8.819,28.98h-0.177l-8.784-26.346c-1.241-3.691-2.534-9.307,0.165-10.604
				l-0.024-0.446l-26.396-0.028v0.443c3.27,1.301,3.889,6.904,3.889,10.592l0.037,23.721l-26.426-34.772h-16.332v0.343
				c2.216,0.494,3.509,3.298,6.646,7.326v38.933c0,3.688-0.619,9.291-3.888,10.592v0.443h11.39v-0.443
				c-3.27-1.301-3.889-6.904-3.889-10.592V31.629l34.383,45.211h1.754l-0.061-26.266v-21.01c0-2.664,0.12-8.904,2.017-8.901
				c2.46,0.004,3.892,6.156,4.822,8.927l16.175,47.614h1.509l13.744-44.995h0.178l15.076,44.995h1.597l14.729-47.614
				c1.121-3.693,3.421-9.309,6.954-10.617l-0.048-0.445l-10.903,0.03l0.014,0.446c2.74,1.297,1.628,6.912,0.506,10.604
				l-7.933,26.346h-0.178"/>
			<path fill="#FFFFFF" d="M260.309,52.554l7.467-23.843h0.185l8.264,23.837L260.309,52.554z M277.67,56.725l2.881,8.305
				c1.291,3.695,2.637,9.309-0.172,10.607l0.024,0.443l20.187,0.031l-0.042-0.443c-3.723-1.309-6.304-6.926-7.594-10.617
				l-16.311-46.544h-9.061l-14.801,46.544c-1.167,3.691-3.562,9.309-7.238,10.617l0.049,0.443l11.352-0.031l-0.016-0.443
				c-2.853-1.299-1.696-6.912-0.527-10.607l2.6-8.297L277.67,56.725z"/>
			<g>
				<path fill="#FFFFFF" d="M317.768,64.998c2.141,3.691,4.795,9.307,2.38,10.604l-0.021,0.447l20.778,0.029l0.008-0.445
					c-3.926-1.307-7.35-6.924-9.487-10.617l-20.672-35.669c-2.141-3.691-4.795-9.306-2.38-10.603l0.021-0.445l-20.778-0.031
					l-0.006,0.444c3.924,1.308,7.346,6.924,9.485,10.617L317.768,64.998z"/>
				<path fill="#FFFFFF" d="M326.2,29.329c2.36-3.693,6.118-9.31,10.123-10.617l-0.039-0.444l-11.63,0.031l0.046,0.445
					c2.338,1.297-0.653,6.911-3.015,10.603l-22.811,35.669c-2.361,3.693-6.121,9.311-10.124,10.617l0.018,0.445l11.601-0.029
					l0.003-0.447c-2.336-1.297,0.654-6.912,3.017-10.604L326.2,29.329z"/>
			</g>
		</g>
		<path fill="#FFFFFF" d="M336.864,62.762c0-3.209,2.604-5.574,5.68-5.574c3.046,0,5.649,2.365,5.649,5.574
			c0,3.238-2.603,5.605-5.649,5.605C339.468,68.368,336.864,66,336.864,62.762z M342.544,67.436c2.529,0,4.526-1.982,4.526-4.674
			c0-2.646-1.997-4.643-4.526-4.643c-2.558,0-4.555,1.996-4.555,4.643C337.989,65.454,339.986,67.436,342.544,67.436z M341.361,66
			h-0.978v-6.447h2.457c1.522,0,2.276,0.562,2.276,1.834c0,1.154-0.724,1.656-1.672,1.773l1.836,2.84h-1.096l-1.701-2.795h-1.123V66
			z M342.528,62.377c0.829,0,1.567-0.059,1.567-1.049c0-0.801-0.724-0.947-1.404-0.947h-1.33v1.996H342.528z"/>
	</g>
</g>
</svg>
