<?xml version="1.0" encoding="utf-8"?>
<!-- Generator: Adobe Illustrator 16.0.4, SVG Export Plug-In . SVG Version: 6.00 Build 0)  -->
<!DOCTYPE svg PUBLIC "-//W3C//DTD SVG 1.1//EN" "http://www.w3.org/Graphics/SVG/1.1/DTD/svg11.dtd">
<svg version="1.1" id="Livello_1" xmlns="http://www.w3.org/2000/svg" xmlns:xlink="http://www.w3.org/1999/xlink" x="0px" y="0px"
	 width="205.78px" height="145.702px" viewBox="0 0 205.78 145.702" enable-background="new 0 0 205.78 145.702"
	 xml:space="preserve">
<g>
	<g>
		<g>
			<rect fill="#E30613" stroke="#E30613" stroke-width="0.1135" width="205.693" height="118.167"/>
			<path fill="#E30613" d="M102.847,59.082"/>
		</g>
		<path fill="#FFFFFF" d="M110.283,57.991c2.359,0,3.949,1.469,3.949,3.125c0,2.292-2.361,5.666-6.883,5.666
			c-3.38,0-3.881-2.168-3.881-3.122C103.468,61.94,105.948,57.991,110.283,57.991z"/>
		<path fill="#FFFFFF" d="M119.326,68.438c0-1.082,0.258-4.205,0.258-5.924l-0.385-28.985c0-7.512,2.26-12.492,4.506-15.74
			c2.221-3.207,7.352-9.17,14.48-9.17c5.486,0,8.344,4.455,8.344,9.365c0,5.417-1.844,9.74-8.152,15.606
			c-6.307,5.864-7.834,6.05-7.834,7.71c0,1.593,2.031,2.615,3.117,3.38c1.086,0.764,5.352,3.697,7.453,5.542
			s2.742,3.118,2.742,4.903c0,3.063-1.334,4.765-2.611,6.688c-2.041,3.064-9.627,10.764-13.51,18.157
			c-0.896,1.462-1.619,1.444-2.229,0.64c-1.098-1.445-1.977-2.557-2.293-3.572c-0.314-1.016-0.895-2.677,0.127-4.264
			c1.021-1.59,8.219-10.513,10.762-13.762c2.229-2.842,2.168-6.879,0.514-8.474c-1.654-1.595-5.434-4.964-6.559-6.306
			c-0.955-1.148-1.654-3.554,0-5.478c5.221-6.055,10.828-12.87,10.828-19.625c0-3.822-2.49-6.432-4.461-6.432
			c-4.77,0-8.918,8.917-9.107,17.01l0.891,31.6c0,2.359,0.053,3.487-1.717,5.548c-1.689,1.965-3.379,2.604-4.336,2.604
			C119.648,69.458,119.326,69.076,119.326,68.438z"/>
		<path fill="#FFFFFF" d="M186.339,36.535c0,1.079,0.879,1.96,1.961,1.96c1.08,0,1.959-0.882,1.959-1.96
			c0-1.08-0.879-1.96-1.959-1.96C187.218,34.575,186.339,35.456,186.339,36.535z M186.904,36.535c0-0.901,0.609-1.526,1.396-1.526
			c0.775,0,1.395,0.625,1.395,1.526c0,0.906-0.619,1.526-1.395,1.526C187.513,38.061,186.904,37.441,186.904,36.535z
			 M187.513,37.614h0.467v-0.921h0.221l0.521,0.921h0.48l-0.576-0.944c0.336-0.026,0.576-0.183,0.576-0.579
			c0-0.489-0.318-0.652-0.871-0.652h-0.818V37.614z M187.98,36.334v-0.537h0.332c0.184,0,0.42,0.026,0.42,0.249
			c0,0.25-0.15,0.289-0.373,0.289H187.98z"/>
		<path fill="#FFFFFF" d="M60.496,81.469c0-4.969,4.587-12.328,8.886-12.328c0.765,0,1.244,0.191,2.103,0.191
			c1.051,0,1.625-2.198,3.25-2.198c1.433,0,2.801,0.478,2.801,4.014c0,1.72,1.373,4.491,2.454,4.491c2.39,0,3.925-6.747,5.065-9.939
			c0.292-0.823,1.146-1.624,1.816-1.624c1.278,0,1.881,0.981,2.006,2.066c0.126,1.088,0.312,5.992,1.59,5.992
			c1.54,0,2.937-4.461,4.143-6.946c1.207-2.484,2.545-4.586,3.501-4.586c0.956,0,0.848,0.896,0.831,1.659
			c-0.192,7.005-0.515,38.475-0.449,39.048s-0.256,1.021-0.764,1.021s-3.316,0.067-3.822,0.067c-0.508,0-0.831-0.574-0.831-1.088
			l0.323-25.734c0-1.464-0.872-1.195-1.464-0.316c-1.787,2.669-2.926,4.396-4.778,4.396c-3.13,0-1.779-4.014-3.125-4.014
			c-1.344,0-3.379,6.625-7.135,6.625c-3.631,0-2.742-4.081-4.014-4.081c-1.464,0-4.331,7.204-9.108,7.204
			C62.371,85.387,60.496,84.844,60.496,81.469z"/>
		<path fill="#E30613" stroke="#E30613" stroke-width="0.1135" d="M65.943,79.904c0-1.911,3.56-7.705,5.22-7.705
			c0.573,0,0.956,0.569,0.956,1.214c0,1.72-3.751,7.638-5.22,7.638C66.385,81.05,65.943,80.793,65.943,79.904z"/>
		<path fill="#FFFFFF" d="M145.832,58.439c0-5.034,4.975-13.825,10.387-13.825c0.766,0,1.654-0.191,2.16-0.765
			c0.508-0.571,0.963-1.272,1.979-1.272c1.713,0,2.09,1.594,2.293,2.927c0.316,2.102,0.578,5.607,2.102,5.607
			c1.148,0,1.547-1.092,2.17-2.604c0.57-1.397,2.793-6.251,3.625-7.782c0.828-1.529,1.777-1.91,2.482-1.91s1.721,0.704,1.721,1.659
			c0,0.955,0.133,3.184,0.133,3.184c0,1.145,0.918,1.354,1.658-0.449c0.891-2.168,2.678-6.749,5.031-6.749
			c1.648,0,2.16,1.589,2.736,3.756c0.572,2.168,1.533,6.624,3.951,6.624c0.766,0,2.104-1.205,2.674-0.632
			c0.527,0.524-0.822,2.412-1.908,3.69c-1.086,1.279-2.295,2.484-4.014,2.484c-1.723,0-2.98-0.656-3.824-2.735
			c-0.697-1.726-1.086-4.718-2.102-4.718c-0.895,0-1.473,1.463-2.555,3.822s-3.238,6.756-5.473,6.756
			c-1.475,0-1.783-1.148-1.783-3.059c0-0.765-0.533-1.535-1.404,0.066c-1.465,2.675-2.803,5.793-5.604,5.793
			c-2.42,0-3.291-1.966-3.697-3.44c-0.191-0.697-0.697-1.277-1.271-0.382s-3.439,4.651-4.779,5.798
			c-1.338,1.146-2.424,2.036-4.145,2.036C146.656,62.32,145.832,61.05,145.832,58.439z"/>
		<path fill="#E30613" stroke="#E30613" stroke-width="0.1135" d="M151.566,54.934c0-1.719,3.504-6.689,5.158-6.689
			c0.568,0,0.764,0.387,0.764,0.832c0,1.276-3.248,7.129-4.969,7.129C151.947,56.206,151.566,55.573,151.566,54.934z"/>
		<path fill="#FFFFFF" d="M43.687,87.439c0-0.964-0.869-1.288-0.869-1.288l-8.41-3.917c-1.433-0.669-1.242-1.337,0-2.104
			l8.218-5.159c0.957-0.573,1.052-1.337,1.052-2.388l-0.095-26.946c0-0.862,0.095-1.436,0.858-1.914l3.25-2.101
			c1.338-0.67,2.579-0.67,2.579,0.955v24.558c0,1.148,0.557,2.014,2.007,0.86c7.836-6.211,15.482-12.708,15.482-22.647
			c0-5.733-3.632-9.269-8.696-9.269c-12.327,0-32.843,14.028-40.421,19.208c-1.715,1.168-5.83,4.681-6.595,5.445
			c-0.764,0.765-1.528,1.051-1.528-0.477c0-1.529,0.095-3.632,0.095-5.352c0-1.719,0.621-5.237,3.059-6.785
			c17.009-10.798,32.968-17.39,44.053-17.39s14.908,7.452,14.908,12.803c0,10.033-7.358,19.017-21.693,29.911
			c-0.669,0.571-0.669,1.623-0.669,1.911v5.065c0,1.146,0.575,1.815,1.625,2.295l22.266,10.508c2.197,1.054,2.005,2.485,1.624,3.25
			c-0.382,0.764-0.735,1.826-1.241,2.293c-1.148,1.051-2.104,1.336-4.015,0.574l-18.443-8.791c-1.051-0.67-1.816-0.191-1.911,0.668
			l0.19,4.684c0,1.145-0.382,2.39-1.624,3.152c-1.243,0.764-2.677,1.721-3.44,2.104c-0.764,0.383-1.529,0.572-1.529-0.764
			c0-1.34-0.115-12.243-0.096-12.244C43.677,88.147,43.687,88.399,43.687,87.439z"/>
	</g>
	<g>
		<path fill="#FFFFFF" d="M10.863,131.299v3.097c0,0,0,0.193-0.043,0.473c-0.279,1.548-1.354,2.602-3.031,2.602H3.682
			c0,0-0.194,0-0.495-0.043c-1.526-0.258-2.58-1.376-2.58-3.031v-4.106c0,0,0-0.216,0.043-0.495
			c0.258-1.548,1.354-2.602,3.032-2.602h4.106c0,0,0.193,0,0.494,0.043c1.548,0.259,2.58,1.376,2.58,3.054H8.82
			c0-0.71-0.408-1.032-1.032-1.032H3.682c-0.688,0-1.032,0.408-1.032,1.032v4.106c0,0.688,0.409,1.01,1.032,1.01h4.106
			c0.688,0,1.032-0.408,1.032-1.01v-1.032H5.746v-2.064H10.863z"/>
		<path fill="#FFFFFF" d="M22.064,131.299v2.064h-5.117v1.032v1.01h7.181v2.064h-9.245v-3.074v-7.203h3.074h6.171v2.064h-6.171
			h-1.01v2.042H22.064z"/>
		<path fill="#FFFFFF" d="M27.783,127.193h3.719l4.106,8.213h0.387v-7.181v-1.032h2.064v1.032v9.245h-3.719l-4.107-8.213h-0.387
			v7.181v1.032h-2.064v-1.032V127.193z"/>
		<path fill="#FFFFFF" d="M52.465,134.396c0,0,0,0.193-0.043,0.473c-0.279,1.548-1.354,2.602-3.031,2.602h-4.106
			c0,0-0.194,0-0.495-0.043c-1.526-0.258-2.58-1.376-2.58-3.031v-6.171v-1.032h2.042v1.032v6.171c0,0.688,0.409,1.01,1.032,1.01
			h4.106c0.688,0,1.032-0.408,1.032-1.01v-6.171v-1.032h2.043v1.032V134.396z"/>
		<path fill="#FFFFFF" d="M56.228,128.225v-1.032h2.064v1.032v8.213v1.032h-2.064v-1.032V128.225z"/>
		<path fill="#FFFFFF" d="M62.011,127.193h3.719l4.107,8.213h0.387v-7.181v-1.032h2.064v1.032v9.245h-3.719l-4.106-8.213h-0.387
			v7.181v1.032h-2.064v-1.032V127.193z"/>
		<path fill="#FFFFFF" d="M83.489,131.299v2.064h-5.117v1.032v1.01h7.181v2.064h-9.245v-3.074v-7.203h3.075h6.17v2.064h-6.17h-1.011
			v2.042H83.489z"/>
		<path fill="#FFFFFF" d="M99.27,133.364h-1.011c-1.957,0-2.58-1.914-2.58-3.074c0-1.183,0.624-3.097,2.58-3.097h1.011h1.032h3.075
			c1.957,0,2.58,1.893,2.58,3.097l-2.064-0.021c0-0.86-0.387-1.011-0.516-1.011h-3.075H99.27h-1.011
			c-0.129,0-0.516,0.15-0.516,1.032c0,0.859,0.387,1.01,0.516,1.01h1.011h1.032h3.075c1.935,0,2.58,1.914,2.58,3.097
			c0,1.161-0.645,3.074-2.58,3.074h-3.075H99.27h-1.032c-1.935,0-2.559-1.913-2.559-3.074l2.064-0.021
			c0,0.881,0.387,1.031,0.494,1.031h1.032h1.032h3.075c0.129,0,0.516-0.15,0.516-1.01c0-0.882-0.387-1.032-0.516-1.032h-3.075H99.27
			z"/>
		<path fill="#FFFFFF" d="M109.589,128.225v-1.032h2.064v1.032v8.213v1.032h-2.064v-1.032V128.225z"/>
		<path fill="#FFFFFF" d="M115.373,127.193h3.72l4.106,8.213h0.387v-7.181v-1.032h2.064v1.032v9.245h-3.72l-4.106-8.213h-0.387
			v7.181v1.032h-2.064v-1.032V127.193z"/>
		<path fill="#FFFFFF" d="M139.883,134.89c-0.259,1.526-1.376,2.58-3.032,2.58h-4.106c0,0-0.193,0-0.494-0.043
			c-1.548-0.258-2.602-1.376-2.602-3.031v-4.106c0,0,0.021-0.194,0.064-0.495c0.279-1.548,1.354-2.602,3.031-2.602h4.106
			c0,0,0.193,0,0.495,0.043c1.526,0.259,2.58,1.376,2.58,3.054h-2.043c0-0.688-0.43-1.032-1.032-1.032h-4.106
			c-0.688,0-1.032,0.408-1.032,1.032v4.106c0,0.688,0.409,1.031,1.032,1.031h4.106c0.688,0,0.989-0.43,1.032-1.031h2.043
			C139.926,134.396,139.926,134.589,139.883,134.89z"/>
		<path fill="#FFFFFF" d="M150.611,131.299v2.064h-5.117v1.032v1.01h7.182v2.064h-9.245v-3.074v-7.203h3.074h6.171v2.064h-6.171
			h-1.011v2.042H150.611z"/>
		<path fill="#FFFFFF" d="M163.447,131.192l-0.925,0.474l-0.903-1.85c1.054-0.516,2.387-1.14,2.387-2.623h2.064v9.245v1.032h-2.064
			v-1.032v-5.59C163.833,130.977,163.64,131.106,163.447,131.192z"/>
		<path fill="#FFFFFF" d="M170.348,130.29c0-1.183,0.645-3.097,2.58-3.097h2.063h0.494h2.064c1.935,0,2.58,1.914,2.58,3.097v4.106
			c0,0-0.021,0.193-0.064,0.473c-0.279,1.548-1.354,2.602-3.031,2.602h-3.591c-1.784,0-3.117-1.376-3.074-3.074h2.042
			c0,0.129,0.064,1.01,1.032,1.01h3.591c0.688,0,1.031-0.408,1.031-1.01v-1.075c-0.15,0.021-0.322,0.043-0.516,0.043h-2.559h-2.063
			C170.993,133.364,170.348,131.45,170.348,130.29z M174.992,131.299h2.559c0.129,0,0.516-0.15,0.516-1.01
			c0-0.882-0.387-1.032-0.516-1.032h-2.064h-0.494h-2.063c-0.13,0-0.517,0.15-0.517,1.032c0,0.859,0.387,1.01,0.517,1.01H174.992z"
			/>
		<path fill="#FFFFFF" d="M193.482,134.396c0,1.161-0.624,3.074-2.58,3.074h-4.106c-1.785,0-3.097-1.376-3.075-3.074h2.064
			c0,0,0,0.043,0,0.15c0.107,0.559,0.365,0.859,1.011,0.859h4.106c0.129,0,0.516-0.15,0.516-1.01c0-0.882-0.387-1.032-0.516-1.032
			h-4.085v-2.064h4.106c0.107,0,0.516-0.15,0.516-1.01c0-0.882-0.408-1.032-0.516-1.032h-4.106c-0.71,0-1.011,0.408-1.032,1.032
			h-2.064c0,0,0-0.216,0.043-0.495c0.259-1.548,1.376-2.602,3.054-2.602h4.106c1.935,0,2.559,1.914,2.559,3.097
			c0,0.602-0.172,1.419-0.603,2.042C193.31,132.977,193.482,133.772,193.482,134.396z"/>
		<path fill="#FFFFFF" d="M200.082,137.792l-1.849-0.924l0.473-0.925c0,0,1.032-2.086,2.344-4.192
			c0.387-0.603,1.011-1.612,1.763-2.537h-5.246h-1.031v-2.043h9.245v2.043C204.167,129.902,200.899,136.137,200.082,137.792z"/>
	</g>
</g>
</svg>
