<?xml version="1.0" encoding="utf-8"?>
<!-- Generator: Adobe Illustrator 16.0.4, SVG Export Plug-In . SVG Version: 6.00 Build 0)  -->
<!DOCTYPE svg PUBLIC "-//W3C//DTD SVG 1.1//EN" "http://www.w3.org/Graphics/SVG/1.1/DTD/svg11.dtd">
<svg version="1.1" id="Livello_1" xmlns="http://www.w3.org/2000/svg" xmlns:xlink="http://www.w3.org/1999/xlink" x="0px" y="0px"
	 width="490.927px" height="249.733px" viewBox="0 0 490.927 249.733" enable-background="new 0 0 490.927 249.733"
	 xml:space="preserve">
<path fill="#E52729" d="M265.671,131.48c6.283,0,10.521,3.911,10.521,8.319c0,6.107-6.29,15.092-18.331,15.092
	c-9.004,0-10.337-5.771-10.337-8.312C247.524,141.995,254.126,131.48,265.671,131.48z"/>
<path fill="#E52729" d="M289.753,159.299c0-2.879,0.688-11.197,0.688-15.778l-1.026-77.186c0-20.005,6.019-33.266,12-41.917
	C307.329,15.881,320.994,0,339.977,0c14.61,0,22.219,11.863,22.219,24.939c0,14.423-4.91,25.937-21.706,41.558
	c-16.795,15.616-20.862,16.11-20.862,20.531c0,4.243,5.405,6.965,8.296,9.002c2.894,2.033,14.254,9.845,19.853,14.76
	c5.595,4.915,7.3,8.304,7.3,13.059c0,8.157-3.552,12.687-6.954,17.81c-5.436,8.158-25.635,28.662-35.978,48.352
	c-2.385,3.895-4.311,3.848-5.934,1.701c-2.921-3.848-5.264-6.805-6.106-9.508c-0.834-2.709-2.383-7.132,0.339-11.357
	c2.721-4.232,21.886-27.997,28.66-36.648c5.934-7.568,5.771-18.317,1.365-22.565c-4.405-4.246-14.467-13.218-17.463-16.793
	c-2.545-3.059-4.409-9.465,0-14.586c13.902-16.126,28.836-34.274,28.836-52.262c0-10.179-6.632-17.129-11.881-17.129
	c-12.702,0-23.75,23.744-24.255,45.298l2.373,84.148c0,6.284,0.139,9.286-4.573,14.776c-4.496,5.231-8.997,6.934-11.545,6.934
	C290.614,162.018,289.753,161,289.753,159.299z"/>
<path fill="#E52729" d="M468.216,74.343c0,2.87,2.337,5.22,5.218,5.22c2.877,0,5.22-2.35,5.22-5.22c0-2.875-2.343-5.221-5.22-5.221
	C470.553,69.123,468.216,71.468,468.216,74.343z M469.716,74.343c0-2.399,1.624-4.065,3.718-4.065c2.067,0,3.715,1.666,3.715,4.065
	c0,2.412-1.647,4.063-3.715,4.063C471.34,78.407,469.716,76.755,469.716,74.343z M471.34,77.213h1.243v-2.452h0.586l1.39,2.452
	h1.281l-1.534-2.513c0.894-0.069,1.534-0.487,1.534-1.543c0-1.301-0.851-1.737-2.321-1.737h-2.179V77.213z M472.583,73.808v-1.432
	h0.885c0.488,0,1.118,0.069,1.118,0.663c0,0.667-0.403,0.769-0.996,0.769H472.583z"/>
<path fill="#E52729" d="M233.264,138.432c-2.549,0-6.111,5.598-9.324,12.213c-3.219,6.618-6.937,18.5-11.033,18.5
	c-3.406,0-3.901-13.057-4.237-15.959c-0.334-2.887-1.938-5.5-5.344-5.5c-1.779,0-4.056,2.131-4.837,4.324
	c-3.035,8.503-7.122,26.467-13.486,26.467c-2.881,0-6.535-7.377-6.535-11.959c0-9.414-3.643-10.688-7.462-10.688
	c-4.324,0-5.856,5.856-8.652,5.856c-2.283,0-3.562-0.512-5.598-0.512c-11.448,0-23.665,19.596-23.665,32.828
	c0,8.988,4.992,10.436,8.733,10.436c12.722,0,20.357-19.189,24.254-19.189c3.39,0,1.021,10.873,10.689,10.873
	c10.003,0,15.423-17.645,19.001-17.645c3.585,0-0.018,10.693,8.32,10.693c4.934,0,7.964-4.6,12.726-11.709
	c1.572-2.342,3.9-3.054,3.9,0.844l-0.861,68.531c0,1.369,0.861,2.896,2.214,2.896c1.345,0,8.821-0.18,10.173-0.18
	c1.353,0,2.213-1.189,2.037-2.717c-0.176-1.525,0.685-85.33,1.2-103.987C235.52,140.817,235.805,138.432,233.264,138.432z
	 M150.143,192.887c-1.369,0-2.548-0.684-2.548-3.053c0-5.086,9.481-20.517,13.904-20.517c1.521,0,2.542,1.511,2.542,3.229
	C164.042,177.127,154.054,192.887,150.143,192.887z"/>
<path fill="#E52729" d="M480.446,100.104c-1.518-1.525-5.08,1.684-7.116,1.684c-6.442,0-9.001-11.866-10.527-17.638
	c-1.534-5.772-2.896-10.003-7.285-10.003c-6.267,0-11.024,12.199-13.4,17.971c-1.969,4.803-4.411,4.245-4.411,1.195
	c0,0-0.356-5.937-0.356-8.478c0-2.544-2.704-4.419-4.582-4.419c-1.877,0-4.406,1.013-6.612,5.084
	c-2.217,4.077-8.133,17.003-9.651,20.724c-1.66,4.028-2.721,6.934-5.777,6.934c-4.057,0-4.755-9.332-5.6-14.932
	c-0.542-3.548-1.546-7.792-6.104-7.792c-2.707,0-3.917,1.863-5.27,3.385c-1.349,1.53-3.715,2.039-5.754,2.039
	c-14.41,0-27.657,23.409-27.657,36.814c0,6.951,2.192,10.334,6.768,10.334c4.586,0,7.477-2.366,11.038-5.419
	c3.568-3.054,11.2-13.057,12.729-15.44c1.528-2.386,2.877-0.839,3.386,1.016c1.081,3.927,3.402,9.162,9.845,9.162
	c7.462,0,11.024-8.303,14.926-15.426c2.317-4.266,3.737-2.213,3.737-0.176c0,5.087,0.82,8.146,4.747,8.146
	c5.951,0,11.695-11.711,14.576-17.991c2.885-6.282,4.419-10.18,6.806-10.18c2.704,0,3.737,7.969,5.595,12.564
	c2.247,5.538,5.596,7.287,10.184,7.287c4.579,0,7.798-3.211,10.688-6.618C478.256,106.528,481.849,101.498,480.446,100.104z
	 M378.148,126.726c-1.522,0-2.539-1.687-2.539-3.388c0-4.576,9.334-17.812,13.739-17.812c1.511,0,2.033,1.031,2.033,2.216
	C391.381,111.138,382.733,126.726,378.148,126.726z"/>
<path fill="#E52729" d="M88.329,209.901c0-2.566-2.317-3.43-2.317-3.43L63.617,196.04c-3.82-1.783-3.308-3.562,0-5.605L85.503,176.7
	c2.548-1.527,2.803-3.566,2.803-6.361l-0.255-71.76c0-2.296,0.255-3.822,2.284-5.095l8.658-5.596
	c3.562-1.785,6.867-1.785,6.867,2.546v65.396c0,3.057,1.481,5.36,5.341,2.291c20.869-16.541,41.23-33.839,41.23-60.31
	c0-15.268-9.676-24.683-23.157-24.683c-32.829,0-87.461,37.357-107.643,51.151c-4.568,3.111-15.524,12.466-17.564,14.502
	C2.033,140.817,0,141.58,0,137.51c0-4.071,0.251-9.672,0.251-14.252c0-4.578,1.654-13.946,8.147-18.066
	c45.296-28.757,87.794-46.312,117.313-46.312c29.518,0,39.695,19.846,39.695,34.096c0,26.716-19.591,50.641-57.767,79.65
	c-1.779,1.525-1.779,4.322-1.779,5.09v13.49c0,3.051,1.528,4.834,4.328,6.107l59.292,27.986c5.853,2.807,5.344,6.619,4.326,8.654
	c-1.02,2.035-1.958,4.859-3.304,6.104c-3.06,2.801-5.605,3.559-10.691,1.529l-49.112-23.41c-2.803-1.783-4.84-0.51-5.095,1.783
	l0.51,12.471c0,3.047-1.018,6.361-4.326,8.395c-3.31,2.033-7.126,4.58-9.159,5.602c-2.034,1.02-4.075,1.525-4.075-2.033
	c0-3.568-0.305-32.605-0.253-32.605C88.302,211.788,88.329,212.456,88.329,209.901z"/>
<path fill="#E52729" d="M490.81,144.309l0.117-2.25l-0.142,2.577C490.793,144.531,490.802,144.421,490.81,144.309z"/>
</svg>
