<?xml version="1.0" encoding="utf-8"?>
<!-- Generator: Adobe Illustrator 17.0.2, SVG Export Plug-In . SVG Version: 6.00 Build 0)  -->
<!DOCTYPE svg PUBLIC "-//W3C//DTD SVG 1.1//EN" "http://www.w3.org/Graphics/SVG/1.1/DTD/svg11.dtd">
<svg version="1.1" id="Layer_1" xmlns="http://www.w3.org/2000/svg" xmlns:xlink="http://www.w3.org/1999/xlink" x="0px" y="0px"
	 width="242px" height="128px" viewBox="0 0 242 128" enable-background="new 0 0 242 128" xml:space="preserve">
<g>
	<g>
		<path fill-rule="evenodd" clip-rule="evenodd" fill="#1CA0C7" d="M183.52,58.705c1.49-0.104,2.614-1.4,2.507-2.894
			c-0.01-0.147-0.228-2.703-2.884-2.515c-1.488,0.103-2.612,1.398-2.507,2.893C180.739,57.681,182.031,58.811,183.52,58.705z"/>
		<path fill="#1CA0C7" d="M183.328,60.038c-2.104,0-3.866-1.65-4.013-3.757c-0.075-1.076,0.274-2.118,0.979-2.932
			c0.706-0.813,1.684-1.302,2.756-1.376c3.194-0.222,4.205,2.395,4.297,3.749c0.075,1.07-0.27,2.111-0.976,2.925
			c-0.707,0.816-1.686,1.307-2.761,1.382C183.516,60.034,183.422,60.038,183.328,60.038z"/>
	</g>
	<g>
		<path fill="#FFFFFF" d="M74.324,68.52c-1.467,0.153-2.935,0.306-4.209,0.352c-0.181,5.816-2.275,11.257-6.232,16.693
			c-4.713,6.477-5.034-0.251-4.462-2.909c0,0,5.517-7.689,5.763-14.391c-2.978-0.876-4.503-3.188-4.908-8.091
			c-0.721-8.744,7.216-10.496,8.395-9.365c1.181,1.134,1.052,7.346,1.382,10.977c4.611-0.071,8.854-2.063,12.081-2.511
			c2.06-0.286,2.864,0.486,2.176,3.17c-5.049,20.365-3.586,26.623-0.645,26.516c2.06-0.077,4.361-0.323,8.613-6.047
			c1.091-1.467,5.719,0.195,3.977,2.523c-3.801,5.08-7.802,9.833-13.587,10.045C78.061,95.653,71.296,90.486,74.324,68.52z"/>
		<path fill="#FFFFFF" d="M82.452,96.151c-2.084,0-4.081-0.979-5.626-2.757c-2.549-2.934-5.156-9.499-3.269-24.127
			c-0.932,0.095-1.908,0.188-2.807,0.239c-0.304,5.631-2.379,11.021-6.333,16.451c-1.49,2.049-2.677,3.003-3.732,3.003h0
			c-0.511,0-0.963-0.227-1.308-0.655c-1.101-1.369-0.88-4.492-0.601-5.788l0.029-0.136l0.08-0.111
			c0.053-0.074,5.133-7.226,5.611-13.533c-3.01-1.093-4.479-3.676-4.879-8.507c-0.326-3.953,1.071-6.378,2.299-7.717
			c1.812-1.974,4.15-2.673,5.602-2.673c0.719,0,1.276,0.17,1.611,0.491c0.979,0.941,1.175,3.664,1.382,8.038
			c0.046,0.973,0.09,1.904,0.149,2.733c2.543-0.136,4.999-0.84,7.185-1.468c1.501-0.43,2.919-0.837,4.199-1.016
			c0.298-0.04,0.574-0.062,0.821-0.062c0.865,0,1.505,0.261,1.903,0.775c0.524,0.678,0.583,1.721,0.183,3.28
			c-4.778,19.274-3.209,24.029-2.313,25.178c0.272,0.347,0.575,0.51,0.955,0.51l0.05-0.001c1.746-0.065,3.92-0.144,8.107-5.78
			c0.393-0.528,1.08-0.82,1.934-0.82c1.214,0,2.821,0.631,3.405,1.802c0.373,0.747,0.265,1.577-0.302,2.335
			c-3.97,5.307-8.034,10.089-14.093,10.311C82.614,96.149,82.533,96.151,82.452,96.151z M75.095,67.773l-0.115,0.839
			c-2.03,14.721,0.427,21.129,2.844,23.912c1.289,1.483,2.933,2.301,4.629,2.301c0.064,0,0.129-0.002,0.193-0.004
			c5.475-0.2,9.313-4.741,13.082-9.78c0.349-0.466,0.268-0.763,0.177-0.946c-0.289-0.579-1.306-1.069-2.221-1.069
			c-0.414,0-0.74,0.108-0.873,0.287c-4.223,5.683-6.629,6.221-9.12,6.313l-0.098,0.001c-0.786,0-1.476-0.352-1.997-1.02
			c-2.242-2.876-1.544-11.732,2.073-26.321c0.371-1.445,0.193-1.962,0.054-2.141c-0.191-0.248-0.709-0.321-1.498-0.21
			c-1.186,0.165-2.561,0.559-4.016,0.977c-2.442,0.7-5.209,1.494-8.146,1.54L69.45,62.46l-0.056-0.613
			c-0.091-1.003-0.146-2.174-0.205-3.413c-0.122-2.59-0.307-6.502-0.976-7.143c-0.037-0.031-0.249-0.124-0.696-0.124
			c-1.279,0-3.205,0.695-4.629,2.246c-1.505,1.638-2.181,3.958-1.954,6.709c0.373,4.516,1.658,6.692,4.435,7.508l0.493,0.144
			l-0.019,0.516c-0.237,6.45-5.079,13.601-5.804,14.636c-0.303,1.552-0.216,3.823,0.364,4.545c0.115,0.142,0.202,0.163,0.279,0.163
			c0.205,0,1.004-0.178,2.664-2.458c3.935-5.407,5.931-10.747,6.105-16.323l0.019-0.621l0.618-0.022
			c1.275-0.046,2.811-0.207,4.165-0.35L75.095,67.773z"/>
	</g>
	<path fill="#FFFFFF" d="M53.736,40.517c8.428-4.278,7.208-17.421,6.618-25.687C59.251-0.548,46.414-4.643,33.83,4.899
		C16.381,18.13,1.622,41.821,0.229,63.766c-0.501,7.89,0.187,18.122,6.667,23.292c12.028,9.592,26.857-2.718,32.871-13.817
		c0.216,0.431,2.685,3.12,2.883,13.408c-10.528,6.047-21.08,12.052-31.609,18.098c-4.25,2.826-5.217,6.006-3.76,11.783
		c0.69,2.748,2.632,5.14,5.855,7.188c3.223,2.05,6.816,3.301,10.737,3.778c3.923,0.477,7.632,0.29,11.07-0.518
		c7.312-1.719,13.939-6.402,17.471-12.808c5.61-10.177,1.739-54.58,1.622-55.928c-1.479-7.008-9.846-5.221-13.844-3.916
		c-1.83,0.831-3.222,1.836-3.557,2.598C33.601,63.789,28.79,77.615,23.1,77.16C-0.668,75.258,33.084,8.237,45.494,9.357
		c6.513,0.588,0.432,20.175-1.706,26.614C42.835,38.841,48.034,43.412,53.736,40.517z M42.636,109.908
		c-0.294,3.173-1.036,5.934-2.259,8.277c-1.219,2.34-3.207,3.834-5.958,4.494c-2.749,0.665-5.493,0.067-8.187-1.798
		c-2.691-1.865-4.355-3.99-5.007-6.388c-0.654-2.395-0.237-4.761,1.229-6.184c5.444-5.282,13.94-9.417,20.921-14.047
		C43.78,97.928,43.179,104.016,42.636,109.908z"/>
	<g>
		<path fill="#FFFFFF" d="M153.849,90.791c-3.643,0-6.219-7.397-6.383-18.394c-0.072-4.874,0.581-16.477-0.87-17.169
			c-0.738-0.352-3.414,0.3-4.063,0.946c-0.65,0.646-1.271,1.721-1.415,2.765c-1.596-3.202-4.363-4.4-8.307-4.254
			c-5.892,0.255-9.161,3.47-11.079,8.955c-2.213,6.315-2.991,12.228-2.381,18.072c0.74,7.109,4.37,15.31,12.16,15.025
			c0.193-0.007,0.391-0.021,0.592-0.038c6.385-0.594,9.319-6.416,11.564-11.822c0.022-0.053,0.046-0.114,0.073-0.177
			c1.15,3.755,4.167,11.216,10.792,11.216c3.919,0,6.535-3.323,6.142-4.318c-0.118-1.71-2.18-2.239-2.235-3.974
			C157.281,88.474,155.508,90.791,153.849,90.791z M139.322,72.616c-0.133,4.473,0.122,15.644-7.771,15.765
			c-5.37,0.084-6.479-9.596-6.142-14.091c0.596-7.949,3.264-10.279,5.078-11.931c1.431-1.305,4.571-1.455,5.914,0.071
			C138.691,65.037,139.439,68.733,139.322,72.616z"/>
		<path fill="#FFFFFF" d="M131.117,97.186c-7.823,0-11.464-8.311-12.207-15.43c-0.616-5.915,0.17-11.889,2.404-18.263
			c2.121-6.064,5.767-9.004,11.477-9.25c0.219-0.008,0.43-0.012,0.638-0.012c3.493,0,5.973,1.168,7.543,3.564
			c0.281-0.715,0.724-1.414,1.25-1.937c0.635-0.632,2.594-1.173,3.752-1.173c0.345,0,0.609,0.048,0.809,0.141
			c1.167,0.557,1.297,4.314,1.157,13.089c-0.026,1.696-0.052,3.298-0.034,4.475c0.157,10.574,2.601,17.958,5.941,17.958
			c1.009,0,2.206-1.136,3.165-2.051c0.417-0.396,0.811-0.773,1.163-1.031l0.676-0.496l0.026,0.838
			c0.022,0.71,0.473,1.181,0.993,1.728c0.539,0.563,1.147,1.2,1.237,2.171c0.135,0.445-0.042,1.056-0.5,1.732
			c-1.051,1.551-3.337,3.117-6.079,3.117c-6.127,0-9.336-6.067-10.844-10.395c-2.251,5.247-5.279,10.595-11.546,11.178
			c-0.209,0.02-0.414,0.032-0.615,0.04C131.388,97.184,131.252,97.186,131.117,97.186z M133.429,55.116
			c-0.197,0-0.398,0.004-0.604,0.011c-5.371,0.232-8.665,2.904-10.678,8.66c-2.19,6.249-2.961,12.095-2.358,17.879
			c0.715,6.868,4.19,14.912,11.706,14.63c0.184-0.007,0.374-0.02,0.567-0.036c6.14-0.571,8.999-6.263,11.197-11.553l0.543-1.306
			l0.358,1.171c1.247,4.072,4.253,10.903,10.371,10.903c2.763,0,4.664-1.716,5.351-2.729c0.368-0.544,0.417-0.897,0.382-0.983
			l-0.029-0.133c-0.048-0.684-0.488-1.145-0.998-1.679c-0.407-0.426-0.851-0.893-1.082-1.51c-0.17,0.156-0.35,0.325-0.533,0.501
			c-1.075,1.022-2.41,2.294-3.773,2.294c-3.975,0-6.654-7.392-6.824-18.83c-0.017-1.19,0.008-2.799,0.036-4.502
			c0.065-4.082,0.186-11.682-0.662-12.279c-0.02-0.008-0.132-0.052-0.423-0.052c-1.067,0-2.751,0.539-3.132,0.917
			c-0.545,0.541-1.153,1.525-1.29,2.511l-0.193,1.414l-0.637-1.277C139.355,56.392,137.037,55.116,133.429,55.116z M131.483,88.822
			c-1.313,0-2.47-0.531-3.439-1.578c-2.748-2.97-3.344-9.394-3.075-12.988c0.601-8.022,3.339-10.513,5.15-12.162l0.072-0.065
			c0.785-0.713,2.031-1.139,3.335-1.139c1.34,0,2.508,0.454,3.207,1.248c2.147,2.445,3.167,5.974,3.031,10.492
			c-0.008,0.267-0.015,0.56-0.022,0.873c-0.111,4.933-0.34,15.199-8.183,15.32H131.483z M133.526,61.775
			c-1.075,0-2.126,0.349-2.743,0.909l-0.071,0.065c-1.809,1.647-4.289,3.903-4.864,11.573c-0.247,3.308,0.305,9.578,2.841,12.32
			c0.796,0.86,1.736,1.294,2.793,1.294h0.063c6.992-0.107,7.202-9.441,7.314-14.456c0.008-0.314,0.014-0.608,0.022-0.879
			c0.129-4.286-0.817-7.609-2.811-9.878C135.541,62.121,134.613,61.775,133.526,61.775z"/>
	</g>
	<g>
		<path fill="#FFFFFF" d="M179.373,48.596c-0.288-2.715-3.322-2.94-4.272-2.905c-1.175,0.043-3.268,0.19-7.115,0.614
			c-0.091-1.006-0.132-2.465-0.136-4.424c-0.003-4.449-0.007-9.048-1.714-10.823c-0.916-0.955-1.654-1.598-3.327-0.68
			c0,0-0.435,0.197-0.813,0.955c-0.631,1.266-0.528,4.039-0.463,6.091c0.027,0.864,0.057,1.761,0.03,2.607l-0.043,1.512
			c-0.061,2.065-0.116,4.029-0.277,5.821c-2.904,0.157-6.968,1.319-8.727,1.706c-1.395,0.307-3.377,1.46-3.419,2.968
			c-0.049,1.817,1.837,2.807,2.904,2.907c0.346,0.034,1.149,0.083,3.229-0.135c2.049-0.211,4.527-0.47,5.751-0.558
			c-0.052,1.104-0.05,2.432-0.048,3.724c0.003,1.406,0.005,2.859-0.061,4.007c-0.09,1.596-0.147,3.216-0.202,4.783
			c-0.233,6.536,1.433,16.188-2.561,21.121c-0.008,1.975,0.715,3.66,0.906,5.6c2.915-1.707,2.2-3.415,3.292-5.153
			c0.036,0.516,0.067,1.009,0.096,1.481c0.331,5.281,0.531,8.468,3.425,8.363l0.032-0.003h0.003
			c3.198-0.164,3.795-0.953,3.752-4.978c-0.055-5.247-0.387-10.785-0.707-16.166c-0.499-8.358-0.91-16.455-0.499-23.61
			c2.927-0.302,4.814-0.183,7.322-0.846C177.969,51.986,179.544,50.244,179.373,48.596z"/>
		<path fill="#FFFFFF" d="M165.694,98.623c-3.076,0-3.379-3.275-3.695-8.281c-0.322,1.114-0.757,2.356-2.758,3.527l-0.593,0.348
			l-0.069-0.685c-0.077-0.798-0.255-1.575-0.425-2.324c-0.24-1.051-0.488-2.136-0.483-3.322l0.002-0.155l0.097-0.121
			c2.908-3.593,2.704-9.95,2.523-15.56c-0.062-1.891-0.119-3.676-0.062-5.298c0.057-1.587,0.116-3.202,0.204-4.792
			c0.065-1.136,0.062-2.584,0.06-3.982c-0.002-1.101-0.004-2.235,0.027-3.243c-1.248,0.105-3.223,0.308-4.993,0.492l-0.251,0.026
			c-1.057,0.11-1.923,0.165-2.575,0.165c-0.37,0-0.601-0.018-0.742-0.03c-1.179-0.113-3.36-1.214-3.303-3.362
			c0.049-1.775,2.231-3.05,3.765-3.388c0.387-0.085,0.887-0.209,1.462-0.351c1.895-0.467,4.706-1.16,6.953-1.339
			c0.134-1.664,0.186-3.468,0.241-5.371l0.045-1.56c0.025-0.804-0.002-1.659-0.027-2.487l-0.007-0.213
			c-0.07-2.155-0.156-4.84,0.513-6.183c0.436-0.871,0.967-1.132,1.025-1.16c0.581-0.32,1.118-0.483,1.608-0.483
			c0.934,0,1.557,0.571,2.22,1.26c1.831,1.908,1.834,6.596,1.836,11.131c0.004,1.695,0.036,2.99,0.098,3.935
			c2.977-0.321,5.228-0.513,6.696-0.566c0.056-0.003,0.12-0.004,0.187-0.004c2.025,0,4.281,0.868,4.539,3.305
			c0.196,1.89-1.507,3.805-3.965,4.453c-1.739,0.459-3.178,0.551-4.842,0.658c-0.685,0.044-1.389,0.089-2.171,0.163
			c-0.378,7.04,0.03,14.984,0.519,23.18c0.323,5.398,0.652,10.943,0.708,16.188c0.044,4.236-0.737,5.25-4.171,5.426
			C165.795,98.622,165.744,98.623,165.694,98.623z M162.663,86.949l0.182,2.821c0.344,5.482,0.601,8.05,2.971,7.965
			c2.81-0.144,3.404-0.55,3.362-4.534c-0.055-5.224-0.384-10.758-0.704-16.109c-0.501-8.407-0.914-16.517-0.499-23.698l0.021-0.376
			l0.374-0.039c0.952-0.096,1.779-0.15,2.579-0.202c1.619-0.104,3.016-0.193,4.674-0.63c2.008-0.531,3.463-2.07,3.31-3.507
			c-0.246-2.33-2.863-2.512-3.661-2.512c-0.057,0-0.109,0.001-0.155,0.003c-1.522,0.056-3.905,0.262-7.083,0.611l-0.447,0.05
			l-0.04-0.449c-0.089-0.994-0.135-2.455-0.137-4.463c-0.002-4.156-0.004-8.866-1.59-10.518c-0.557-0.579-0.995-0.989-1.584-0.989
			c-0.34,0-0.737,0.127-1.214,0.39c-0.022,0.01-0.338,0.181-0.629,0.765c-0.571,1.143-0.486,3.81-0.422,5.759l0.007,0.213
			c0.028,0.842,0.054,1.712,0.029,2.542l-0.047,1.559c-0.058,2.062-0.114,4.007-0.277,5.801l-0.035,0.381l-0.379,0.021
			c-2.22,0.12-5.201,0.854-7.174,1.34c-0.584,0.144-1.091,0.269-1.484,0.356c-1.265,0.278-3.038,1.319-3.07,2.549
			c-0.042,1.542,1.637,2.373,2.503,2.455c0.124,0.012,0.327,0.027,0.659,0.027c0.621,0,1.458-0.054,2.485-0.161l0.25-0.027
			c2.03-0.21,4.332-0.447,5.512-0.535l0.495-0.036l-0.022,0.497c-0.052,1.104-0.049,2.426-0.046,3.704
			c0.001,1.41,0.005,2.871-0.063,4.033c-0.088,1.582-0.145,3.191-0.202,4.747c-0.057,1.62,0,3.391,0.06,5.266
			c0.183,5.702,0.392,12.156-2.619,16.021c0.016,1.024,0.231,1.97,0.46,2.967c0.126,0.561,0.257,1.135,0.351,1.731
			c1.292-0.917,1.544-1.802,1.832-2.807c0.17-0.592,0.347-1.206,0.743-1.835L162.663,86.949z"/>
	</g>
	<g>
		<path fill="#1CA0C7" d="M241.308,49.552c-0.288-2.715-3.321-2.94-4.271-2.905c-1.175,0.043-3.268,0.19-7.115,0.614
			c-0.089-1.008-0.132-2.466-0.135-4.424c-0.002-4.449-0.008-9.047-1.714-10.823c-0.916-0.954-1.655-1.598-3.327-0.681
			c0,0-0.434,0.199-0.813,0.955c-0.632,1.267-0.528,4.041-0.462,6.091c0.027,0.865,0.057,1.762,0.03,2.607l-0.044,1.514
			c-0.059,2.065-0.117,4.026-0.277,5.821c-2.905,0.156-6.97,1.318-8.727,1.706c-1.396,0.306-3.379,1.46-3.42,2.967
			c-0.048,1.816,1.838,2.807,2.905,2.907c0.347,0.034,1.15,0.083,3.229-0.134c2.05-0.212,4.526-0.47,5.75-0.559
			c-0.05,1.104-0.049,2.433-0.047,3.724c0.003,1.406,1.444,31.367,1.473,31.839c0.331,5.281,0.532,8.468,3.424,8.363l0.033-0.002
			h0.003c3.198-0.164,3.793-0.953,3.751-4.978c-0.054-5.247-0.385-10.785-0.706-16.166c-0.497-8.357-0.911-16.455-0.497-23.61
			c2.924-0.302,4.811-0.184,7.32-0.846C239.906,52.941,241.482,51.201,241.308,49.552z"/>
		<path fill="#1CA0C7" d="M227.632,99.801c-3.386,0-3.61-3.576-3.949-8.987c-0.014-0.233-1.47-30.414-1.474-31.88
			c-0.001-1.014-0.003-2.056,0.023-3.004c-1.251,0.109-3.09,0.3-4.746,0.472l-0.249,0.026c-1.065,0.11-1.939,0.166-2.599,0.166
			c-0.379,0-0.617-0.02-0.762-0.031c-1.506-0.144-3.559-1.471-3.502-3.588c0.054-2.002,2.444-3.268,3.936-3.598
			c0.387-0.085,0.884-0.207,1.458-0.349c1.85-0.457,4.57-1.127,6.801-1.329c0.123-1.607,0.174-3.346,0.226-5.174l0.046-1.561
			c0.024-0.795-0.002-1.648-0.028-2.472l-0.007-0.212c-0.069-2.182-0.157-4.897,0.537-6.29c0.424-0.852,0.939-1.165,1.1-1.247
			c0.637-0.35,1.204-0.518,1.73-0.518c1.103,0,1.809,0.736,2.378,1.327c1.893,1.972,1.895,6.705,1.897,11.282
			c0.004,1.558,0.03,2.774,0.084,3.691c2.866-0.307,5.046-0.49,6.48-0.543c0.059-0.003,0.126-0.003,0.198-0.003
			c2.12,0,4.482,0.92,4.756,3.501c0.208,1.998-1.566,4.014-4.127,4.692c-1.761,0.465-3.208,0.557-4.885,0.664
			c-0.626,0.039-1.27,0.081-1.975,0.144c-0.358,6.982,0.046,14.85,0.528,22.966c0.323,5.399,0.653,10.947,0.709,16.198
			c0.042,4.067-0.585,5.454-4.381,5.649C227.738,99.8,227.684,99.801,227.632,99.801z"/>
	</g>
	<g>
		<path fill="#FFFFFF" d="M115.349,67.815c3.216-4.826-2.491-14.77-12.431-14.77c-5.442,0-9.355,2.271-11.755,5.749
			c-4.049,5.868-3.27,13.775-2.578,18.721c0.693,4.948,2.288,12.03,6.864,16.482c2.056,2.002,3.747,4.185,8.826,4.185
			c13.206,0,18.08-11.179,17.858-13.744c-0.055-0.624-0.418-7.577-1.164-6.77c-1.933,2.085-3.88,6.97-6.536,9.322
			c-2.049,1.817-4.546,4.074-9.349,4.074c-3.436,0-5.108-2.948-6.709-7.081C101.595,81.961,114.275,69.425,115.349,67.815z
			 M109.593,66.359c-1.469,2.196-8.861,9.369-12.573,11.706c-0.006-0.228-3.844-13.401,1.013-16.557
			C101.877,59.01,108.801,62.711,109.593,66.359z"/>
		<path fill="#FFFFFF" d="M104.275,98.623c-4.807,0-6.731-1.919-8.592-3.772c-0.179-0.18-0.359-0.359-0.542-0.536
			c-3.623-3.527-5.91-9.001-6.992-16.738c-0.823-5.879-1.265-13.359,2.652-19.035c2.681-3.884,6.871-5.937,12.117-5.937
			c6.334,0,10.612,3.789,12.5,7.335c1.589,2.98,1.7,6.017,0.296,8.122c-0.993,1.492-13.031,13.48-16.8,16.093
			c1.621,4.103,3.183,6.469,6.168,6.469c4.586,0,6.928-2.076,8.994-3.907l0.064-0.057c1.471-1.303,2.77-3.498,3.914-5.435
			c0.893-1.507,1.735-2.932,2.591-3.857c0.158-0.169,0.328-0.206,0.443-0.206c0.602,0,1.03,0.474,1.454,6.807
			c0.013,0.211,0.023,0.363,0.03,0.432c0.121,1.395-1.073,4.962-4.022,8.187C116.032,95.339,111.511,98.623,104.275,98.623z
			 M102.917,53.488c-4.943,0-8.883,1.921-11.392,5.557c-3.743,5.424-3.305,12.687-2.504,18.409
			c1.055,7.535,3.257,12.843,6.734,16.226c0.185,0.179,0.367,0.361,0.549,0.542c1.814,1.808,3.527,3.517,7.97,3.517
			c6.915,0,11.226-3.128,13.625-5.751c2.869-3.138,3.886-6.44,3.793-7.511c-0.007-0.073-0.018-0.23-0.032-0.45
			c-0.246-3.693-0.493-5.154-0.655-5.732c-0.703,0.859-1.429,2.088-2.193,3.379c-1.179,1.993-2.514,4.251-4.09,5.647l-0.064,0.058
			c-2.075,1.839-4.657,4.128-9.577,4.128c-3.938,0-5.677-3.638-7.12-7.365l-0.132-0.34l0.31-0.194
			c3.18-1.996,15.867-14.577,16.841-16.039c1.219-1.83,1.092-4.525-0.342-7.212C112.87,57.035,108.861,53.488,102.917,53.488z
			 M96.599,78.852l-0.019-0.741c-0.011-0.048-0.035-0.142-0.068-0.275c-1.278-5.095-2.809-14.04,1.28-16.698
			c0.907-0.589,1.995-0.888,3.237-0.888c3.881,0,8.335,2.979,8.995,6.016l0.04,0.183l-0.105,0.158
			c-1.502,2.246-8.898,9.436-12.705,11.833L96.599,78.852z M101.029,61.134c-1.068,0-1.996,0.252-2.758,0.746
			c-2.621,1.704-2.973,7.336-0.971,15.471c3.695-2.529,10.231-8.876,11.817-11.079C108.402,63.697,104.406,61.134,101.029,61.134z"
			/>
	</g>
	<g>
		<g>
			<path fill-rule="evenodd" clip-rule="evenodd" fill="#1CA0C7" d="M188.67,89.807c-2.964,1.276-5.114,1.296-6.733-3.895
				c-0.865-2.778-0.397-7.051-0.001-10.877c0.013-0.157,0.059-0.433,0.113-0.792c0.323-2.092,1.583-9.189,0.461-10.709
				c-0.242-0.327-0.55-0.522-0.921-0.577c-0.092-0.014-0.185-0.016-0.277-0.009c-1.822,0.126-2.62,6.156-2.853,7.384
				c-1.236,6.465-1.714,17.389,1.565,21.982c3.507,4.919,8.708,2.965,10.585,0.483C195.11,86.847,188.842,89.733,188.67,89.807z"/>
			<path fill="#1CA0C7" d="M185.358,96.685L185.358,96.685c-1.755,0-4.289-0.625-6.41-3.598c-3.859-5.411-2.856-17.413-1.786-23.006
				c0.022-0.122,0.053-0.304,0.09-0.524c0.632-3.748,1.51-7.761,3.971-7.932c0.182-0.013,0.38-0.007,0.568,0.022
				c0.708,0.1,1.33,0.483,1.784,1.1c0.99,1.341,0.957,4.346-0.121,11.084l-0.131,0.841c-0.035,0.21-0.061,0.374-0.069,0.479
				l-0.029,0.274c-0.37,3.579-0.792,7.635-0.025,10.091c1.144,3.675,2.282,3.675,2.768,3.675c0.532,0,1.223-0.191,2.179-0.603
				c0.738-0.328,2.122-0.871,3.218-0.871c1.256,0,1.781,0.685,1.984,1.092c0.545,1.099,0.057,2.489-1.685,4.791
				C190.246,95.473,187.771,96.685,185.358,96.685z"/>
		</g>
		<path fill="#1CA0C7" d="M189.66,90.166"/>
	</g>
	<g>
		<path fill="#1CA0C7" d="M195.357,94.135c-0.282-0.504,0.054-1.048,1.008-1.634c0.955-0.586,2.19-1.232,3.707-1.935
			c1.518-0.706,3.198-1.474,5.042-2.303c1.84-0.831,3.554-1.768,5.139-2.816c-0.211-1.899-0.632-3.866-1.258-5.9
			c-0.63-2.031-1.358-4.006-2.192-5.926c-0.833-1.917-1.703-3.702-2.607-5.35c-0.907-1.647-1.742-3.016-2.503-4.1
			c-0.169,0.255-0.475,1.154-0.916,2.704c-0.442,1.549-0.985,3.454-1.63,5.715c-0.646,2.262-1.364,4.756-2.159,7.486
			c-0.794,2.731-3.586,9.144-5.523,11.088c-3.272,3.284-10.283,2.538-4.393-0.997c3.508-2.105,5.555-8.793,6.362-11.403
			c0.805-2.612,1.518-5.035,2.141-7.271c0.62-2.234,1.138-4.161,1.55-5.779c0.413-1.618,0.645-2.669,0.7-3.154
			c0.648-1.924,1.536-3.009,2.662-3.249c1.13-0.24,2.345,0.121,3.646,1.089c1.301,0.967,2.632,2.413,3.992,4.334
			c1.36,1.922,2.642,4.052,3.846,6.395c0.977,1.931,1.84,3.907,2.586,5.929c0.747,2.021,1.178,3.348,1.582,5.278
			c4.412-1.529,11.708-6.173,10.814-5.473c-0.898,0.7,0.652,2.999-3.809,4.995c-1.704,0.762-3.736,2.181-6.434,3.609
			c0.07,1.961-0.255,3.74-0.98,5.335c-0.955,2.242-2.436,4.084-4.441,5.525c-2.007,1.443-4.093,2.365-6.255,2.766
			c-2.168,0.404-4.167,0.225-5.999-0.528C197.2,97.813,195.974,96.337,195.357,94.135z M210.479,88.088
			c-0.536,0.432-1.276,0.89-2.214,1.378c-0.939,0.49-1.96,0.983-3.065,1.485c-1.106,0.505-2.209,1.018-3.312,1.543
			c-1.103,0.527-2.04,1.039-2.81,1.538c0.303,0.742,0.881,1.241,1.744,1.504c0.857,0.263,1.805,0.312,2.844,0.15
			c1.039-0.16,2.07-0.549,3.093-1.165c1.024-0.614,1.875-1.43,2.553-2.447C210.074,90.906,210.462,89.578,210.479,88.088z"/>
		<path fill="#1CA0C7" d="M202.837,100.63c-1.505,0-2.952-0.28-4.304-0.836c-2.187-0.896-3.672-2.638-4.414-5.178
			c-0.296-0.649-0.517-1.973,1.555-3.245c0.997-0.611,2.29-1.288,3.841-2.01c1.486-0.689,3.14-1.444,5.057-2.308
			c1.507-0.679,2.937-1.44,4.263-2.269c-0.222-1.563-0.592-3.187-1.103-4.842c-0.613-1.985-1.336-3.933-2.141-5.789
			c-0.816-1.879-1.676-3.642-2.553-5.24c-0.335-0.609-0.661-1.181-0.978-1.714c-0.003,0.014-0.008,0.029-0.012,0.042
			c-0.441,1.548-0.984,3.452-1.627,5.712c-0.646,2.267-1.366,4.764-2.161,7.495c-0.837,2.877-3.7,9.486-5.858,11.653
			c-1.714,1.72-4.236,2.489-5.977,2.489c-2.197,0-2.75-1.145-2.886-1.636c-0.469-1.702,1.406-3.055,2.853-3.926
			c3.05-1.831,5.022-8.207,5.764-10.607l0.014-0.05c0.803-2.606,1.52-5.04,2.13-7.235c0.616-2.211,1.135-4.148,1.544-5.751
			c0.516-2.027,0.64-2.734,0.668-2.975l0.015-0.139l0.045-0.134c0.806-2.393,2.03-3.78,3.642-4.123
			c1.491-0.318,3.099,0.127,4.707,1.322c1.406,1.042,2.847,2.6,4.284,4.63c1.397,1.978,2.722,4.184,3.942,6.556
			c1.002,1.98,1.892,4.021,2.652,6.075c0.55,1.492,0.944,2.645,1.28,3.951c2.836-1.207,6.318-3.216,8.128-4.262
			c1.367-0.79,1.421-0.821,1.819-0.821h0.943l0.31,0.898c0.065,0.195,0.223,0.838-0.35,1.404c-0.014,0.085-0.031,0.203-0.042,0.297
			c-0.147,1.158-0.422,3.315-4.206,5.007c-0.857,0.383-1.847,0.971-2.994,1.654c-0.795,0.474-1.676,0.997-2.647,1.532
			c-0.035,1.839-0.405,3.551-1.106,5.095c-1.037,2.432-2.681,4.477-4.877,6.053c-2.154,1.551-4.436,2.558-6.785,2.994
			C204.447,100.553,203.627,100.63,202.837,100.63z M201.274,94.286c0.65,0.186,1.382,0.214,2.189,0.09
			c0.868-0.134,1.747-0.467,2.615-0.992c0.864-0.517,1.56-1.187,2.136-2.049c0.106-0.163,0.204-0.33,0.293-0.502
			c-0.852,0.436-1.78,0.881-2.76,1.327c-1.18,0.536-2.257,1.039-3.289,1.532C202.037,93.893,201.643,94.092,201.274,94.286z"/>
	</g>
	<path fill="#1CA0C7" d="M229.134,89.807"/>
</g>
</svg>
