<?xml version="1.0" encoding="utf-8"?>
<!-- Generator: Adobe Illustrator 16.0.4, SVG Export Plug-In . SVG Version: 6.00 Build 0)  -->
<!DOCTYPE svg PUBLIC "-//W3C//DTD SVG 1.1//EN" "http://www.w3.org/Graphics/SVG/1.1/DTD/svg11.dtd">
<svg version="1.1" id="Livello_1" xmlns="http://www.w3.org/2000/svg" xmlns:xlink="http://www.w3.org/1999/xlink" x="0px" y="0px"
	 width="180.532px" height="93.779px" viewBox="0 0 180.532 93.779" enable-background="new 0 0 180.532 93.779"
	 xml:space="preserve">
<g>
	<g>
		<path fill="#FFFFFF" d="M92.328,50.464"/>
	</g>
	<path fill="#FFFFFF" d="M99.764,49.373c2.359,0,3.949,1.469,3.949,3.125c0,2.292-2.361,5.666-6.883,5.666
		c-3.38,0-3.881-2.168-3.881-3.122C92.95,53.322,95.429,49.373,99.764,49.373z"/>
	<path fill="#FFFFFF" d="M108.807,59.82c0-1.082,0.258-4.205,0.258-5.924L108.68,24.91c0-7.512,2.26-12.492,4.506-15.74
		c2.221-3.207,7.352-9.17,14.48-9.17c5.486,0,8.344,4.455,8.344,9.365c0,5.417-1.844,9.74-8.152,15.606
		c-6.307,5.864-7.834,6.05-7.834,7.71c0,1.593,2.031,2.615,3.117,3.38c1.086,0.764,5.352,3.697,7.453,5.542s2.742,3.118,2.742,4.903
		c0,3.063-1.334,4.765-2.611,6.688c-2.041,3.064-9.627,10.764-13.51,18.157c-0.896,1.462-1.619,1.444-2.229,0.64
		c-1.098-1.445-1.977-2.557-2.293-3.572c-0.314-1.016-0.895-2.677,0.127-4.264c1.021-1.59,8.219-10.513,10.762-13.762
		c2.229-2.842,2.168-6.879,0.514-8.474c-1.654-1.595-5.434-4.964-6.559-6.306c-0.955-1.148-1.654-3.554,0-5.478
		c5.221-6.055,10.828-12.87,10.828-19.625c0-3.822-2.49-6.432-4.461-6.432c-4.77,0-8.918,8.917-9.107,17.01l0.891,31.6
		c0,2.359,0.053,3.487-1.717,5.548c-1.689,1.965-3.379,2.604-4.336,2.604C109.129,60.84,108.807,60.458,108.807,59.82z"/>
	<path fill="#FFFFFF" d="M175.821,27.917c0,1.079,0.879,1.96,1.961,1.96c1.08,0,1.959-0.882,1.959-1.96
		c0-1.08-0.879-1.96-1.959-1.96C176.7,25.957,175.821,26.837,175.821,27.917z M176.385,27.917c0-0.901,0.609-1.526,1.396-1.526
		c0.775,0,1.395,0.625,1.395,1.526c0,0.906-0.619,1.526-1.395,1.526C176.995,29.443,176.385,28.823,176.385,27.917z M176.995,28.996
		h0.467v-0.921h0.221l0.521,0.921h0.48l-0.576-0.944c0.336-0.026,0.576-0.183,0.576-0.579c0-0.489-0.318-0.652-0.871-0.652h-0.818
		V28.996z M177.461,27.716v-0.537h0.332c0.184,0,0.42,0.026,0.42,0.249c0,0.25-0.15,0.289-0.373,0.289H177.461z"/>
	<path fill="#FFFFFF" d="M87.593,51.984c-0.957,0-2.294,2.102-3.501,4.586c-1.207,2.485-2.604,6.946-4.143,6.946
		c-1.278,0-1.463-4.903-1.59-5.992c-0.125-1.085-0.728-2.066-2.006-2.066c-0.669,0-1.523,0.801-1.816,1.624
		c-1.141,3.192-2.676,9.939-5.065,9.939c-1.081,0-2.454-2.771-2.454-4.491c0-3.536-1.368-4.014-2.801-4.014
		c-1.625,0-2.199,2.198-3.25,2.198c-0.859,0-1.337-0.191-2.103-0.191c-4.299,0-8.886,7.358-8.886,12.328
		c0,3.375,1.875,3.918,3.279,3.918c4.778,0,7.645-7.204,9.108-7.204c1.271,0,0.382,4.081,4.014,4.081
		c3.756,0,5.792-6.625,7.135-6.625c1.345,0-0.006,4.014,3.125,4.014c1.852,0,2.991-1.727,4.778-4.396
		c0.592-0.879,1.464-1.147,1.464,0.316l-0.323,25.734c0,0.514,0.323,1.088,0.831,1.088c0.506,0,3.314-0.067,3.822-0.067
		s0.83-0.447,0.764-1.021s0.257-32.042,0.449-39.048C88.441,52.88,88.549,51.984,87.593,51.984z M56.38,72.432
		c-0.514,0-0.956-0.257-0.956-1.146c0-1.911,3.56-7.705,5.22-7.705c0.573,0,0.956,0.569,0.956,1.214
		C61.601,66.514,57.85,72.432,56.38,72.432z"/>
	<path fill="#FFFFFF" d="M180.415,37.591c-0.57-0.573-1.908,0.632-2.674,0.632c-2.418,0-3.379-4.456-3.951-6.624
		c-0.576-2.167-1.088-3.756-2.736-3.756c-2.354,0-4.141,4.581-5.031,6.749c-0.74,1.803-1.658,1.594-1.658,0.449
		c0,0-0.133-2.229-0.133-3.184c0-0.955-1.016-1.659-1.721-1.659s-1.654,0.38-2.482,1.91c-0.832,1.53-3.055,6.384-3.625,7.782
		c-0.623,1.512-1.021,2.604-2.17,2.604c-1.523,0-1.785-3.505-2.102-5.607c-0.203-1.333-0.58-2.927-2.293-2.927
		c-1.016,0-1.471,0.701-1.979,1.272c-0.506,0.574-1.395,0.765-2.16,0.765c-5.412,0-10.387,8.791-10.387,13.825
		c0,2.611,0.824,3.881,2.543,3.881c1.721,0,2.807-0.889,4.145-2.036c1.34-1.147,4.205-4.903,4.779-5.798s1.08-0.315,1.271,0.382
		c0.406,1.475,1.277,3.44,3.697,3.44c2.801,0,4.139-3.118,5.604-5.793c0.871-1.601,1.404-0.831,1.404-0.066
		c0,1.91,0.309,3.059,1.783,3.059c2.234,0,4.391-4.397,5.473-6.756s1.66-3.822,2.555-3.822c1.016,0,1.404,2.992,2.102,4.718
		c0.844,2.079,2.102,2.735,3.824,2.735c1.719,0,2.928-1.206,4.014-2.484C179.592,40.003,180.942,38.115,180.415,37.591z M142,47.587
		c-0.572,0-0.953-0.633-0.953-1.271c0-1.719,3.504-6.689,5.158-6.689c0.568,0,0.764,0.387,0.764,0.832
		C146.969,41.734,143.721,47.587,142,47.587z"/>
	<path fill="#FFFFFF" d="M33.168,78.821c0-0.964-0.869-1.288-0.869-1.288l-8.41-3.917c-1.433-0.669-1.242-1.337,0-2.104l8.218-5.159
		c0.957-0.573,1.052-1.337,1.052-2.388l-0.095-26.946c0-0.862,0.095-1.436,0.858-1.914l3.25-2.101
		c1.338-0.67,2.579-0.67,2.579,0.955v24.558c0,1.148,0.557,2.014,2.007,0.86c7.836-6.211,15.482-12.708,15.482-22.647
		c0-5.733-3.632-9.269-8.696-9.269c-12.327,0-32.843,14.028-40.421,19.208c-1.715,1.168-5.83,4.681-6.595,5.445
		C0.764,52.88,0,53.166,0,51.638c0-1.529,0.095-3.632,0.095-5.352c0-1.719,0.621-5.237,3.059-6.785
		c17.009-10.798,32.968-17.39,44.053-17.39s14.908,7.452,14.908,12.803c0,10.033-7.358,19.017-21.693,29.911
		c-0.669,0.571-0.669,1.623-0.669,1.911V71.8c0,1.146,0.575,1.815,1.625,2.295l22.266,10.508c2.197,1.054,2.005,2.485,1.624,3.25
		c-0.382,0.764-0.735,1.826-1.241,2.293c-1.148,1.051-2.104,1.336-4.015,0.574l-18.443-8.791c-1.051-0.67-1.816-0.191-1.911,0.668
		l0.19,4.684c0,1.145-0.382,2.39-1.624,3.152c-1.243,0.764-2.677,1.721-3.44,2.104c-0.764,0.383-1.529,0.572-1.529-0.764
		c0-1.34-0.115-12.243-0.096-12.244C33.159,79.529,33.168,79.781,33.168,78.821z"/>
</g>
</svg>
